<?xml version="1.0" encoding="UTF-8" standalone="no"?>
<!DOCTYPE svg PUBLIC "-//W3C//DTD SVG 1.1//EN"
 "http://www.w3.org/Graphics/SVG/1.1/DTD/svg11.dtd">
<!-- Generated by graphviz version 2.43.0 (0)
 -->
<!-- Title: %3 Pages: 1 -->
<svg width="208pt" height="98pt"
 viewBox="0.00 0.00 207.79 98.00" xmlns="http://www.w3.org/2000/svg" xmlns:xlink="http://www.w3.org/1999/xlink">
<g id="graph0" class="graph" transform="scale(1 1) rotate(0) translate(4 94)">
<title>%3</title>
<polygon fill="white" stroke="transparent" points="-4,4 -4,-94 203.79,-94 203.79,4 -4,4"/>
<!-- m -->
<g id="node1" class="node">
<title>m</title>
<ellipse fill="none" stroke="black" cx="47.45" cy="-72" rx="47.39" ry="18"/>
<text text-anchor="middle" x="47.45" y="-68.3" font-family="Times,serif" font-size="14.00">mileage</text>
</g>
<!-- p -->
<g id="node3" class="node">
<title>p</title>
<ellipse fill="none" stroke="black" cx="165.34" cy="-45" rx="34.39" ry="18"/>
<text text-anchor="middle" x="165.34" y="-41.3" font-family="Times,serif" font-size="14.00">price</text>
</g>
<!-- m&#45;&gt;p -->
<g id="edge1" class="edge">
<title>m&#45;&gt;p</title>
<path fill="none" stroke="black" d="M88.33,-62.71C99.77,-60.04 112.26,-57.13 123.75,-54.46"/>
<polygon fill="black" stroke="black" points="124.59,-57.85 133.54,-52.18 123,-51.04 124.59,-57.85"/>
</g>
<!-- y -->
<g id="node2" class="node">
<title>y</title>
<ellipse fill="none" stroke="black" cx="47.45" cy="-18" rx="31.4" ry="18"/>
<text text-anchor="middle" x="47.45" y="-14.3" font-family="Times,serif" font-size="14.00">year</text>
</g>
<!-- y&#45;&gt;p -->
<g id="edge2" class="edge">
<title>y&#45;&gt;p</title>
<path fill="none" stroke="black" d="M76.8,-24.6C90.87,-27.88 108.12,-31.9 123.58,-35.51"/>
<polygon fill="black" stroke="black" points="122.9,-38.94 133.43,-37.8 124.49,-32.12 122.9,-38.94"/>
</g>
</g>
</svg>
