<?xml version="1.0" encoding="UTF-8" standalone="no"?>
<!DOCTYPE svg PUBLIC "-//W3C//DTD SVG 1.1//EN"
 "http://www.w3.org/Graphics/SVG/1.1/DTD/svg11.dtd">
<!-- Generated by graphviz version 2.43.0 (0)
 -->
<!-- Title: %3 Pages: 1 -->
<svg width="486pt" height="369pt"
 viewBox="0.00 0.00 486.00 369.00" xmlns="http://www.w3.org/2000/svg" xmlns:xlink="http://www.w3.org/1999/xlink">
<g id="graph0" class="graph" transform="scale(1 1) rotate(0) translate(4 365)">
<title>%3</title>
<polygon fill="white" stroke="transparent" points="-4,4 -4,-365 482,-365 482,4 -4,4"/>
<g id="clust1" class="cluster">
<title>clusterA</title>
<polygon fill="lightgrey" stroke="lightgrey" points="-0.03,-152.62 -0.03,-360.62 244.97,-360.62 244.97,-152.62 -0.03,-152.62"/>
<text text-anchor="middle" x="122.47" y="-345.42" font-family="Times,serif" font-size="14.00">New car configuration</text>
</g>
<g id="clust2" class="cluster">
<title>clusterB</title>
<polygon fill="lightgrey" stroke="lightgrey" points="367.48,-202.61 367.48,-277.61 478.48,-277.61 478.48,-202.61 367.48,-202.61"/>
<text text-anchor="middle" x="422.98" y="-262.41" font-family="Times,serif" font-size="14.00">Usage</text>
</g>
<g id="clust3" class="cluster">
<title>clusterC</title>
<polygon fill="lightgrey" stroke="lightgrey" points="213.42,0.38 213.42,-141.62 380.42,-141.62 380.42,0.38 213.42,0.38"/>
<text text-anchor="middle" x="296.92" y="-126.42" font-family="Times,serif" font-size="14.00">Predictables</text>
</g>
<!-- model -->
<g id="node1" class="node">
<title>model</title>
<ellipse fill="white" stroke="white" cx="61.21" cy="-311.26" rx="38.99" ry="18"/>
<text text-anchor="middle" x="61.21" y="-307.56" font-family="Times,serif" font-size="14.00">model</text>
</g>
<!-- transmission -->
<g id="node2" class="node">
<title>transmission</title>
<ellipse fill="white" stroke="white" cx="79.21" cy="-227.26" rx="70.69" ry="18"/>
<text text-anchor="middle" x="79.21" y="-223.56" font-family="Times,serif" font-size="14.00">transmission</text>
</g>
<!-- fuelType -->
<g id="node3" class="node">
<title>fuelType</title>
<ellipse fill="white" stroke="white" cx="135.21" cy="-178.26" rx="50.89" ry="18"/>
<text text-anchor="middle" x="135.21" y="-174.56" font-family="Times,serif" font-size="14.00">fuelType</text>
</g>
<!-- engineSize -->
<g id="node4" class="node">
<title>engineSize</title>
<ellipse fill="white" stroke="white" cx="175.21" cy="-276.26" rx="61.99" ry="18"/>
<text text-anchor="middle" x="175.21" y="-272.56" font-family="Times,serif" font-size="14.00">engineSize</text>
</g>
<!-- year -->
<g id="node5" class="node">
<title>year</title>
<ellipse fill="white" stroke="white" cx="193.21" cy="-227.26" rx="31.4" ry="18"/>
<text text-anchor="middle" x="193.21" y="-223.56" font-family="Times,serif" font-size="14.00">year</text>
</g>
<!-- mileage -->
<g id="node6" class="node">
<title>mileage</title>
<ellipse fill="white" stroke="white" cx="422.72" cy="-228.25" rx="47.39" ry="18"/>
<text text-anchor="middle" x="422.72" y="-224.55" font-family="Times,serif" font-size="14.00">mileage</text>
</g>
<!-- price -->
<g id="node7" class="node">
<title>price</title>
<ellipse fill="white" stroke="white" cx="338.22" cy="-76.84" rx="34.39" ry="18"/>
<text text-anchor="middle" x="338.22" y="-73.14" font-family="Times,serif" font-size="14.00">price</text>
</g>
<!-- tax -->
<g id="node8" class="node">
<title>tax</title>
<ellipse fill="white" stroke="white" cx="297.96" cy="-25.14" rx="27" ry="18"/>
<text text-anchor="middle" x="297.96" y="-21.44" font-family="Times,serif" font-size="14.00">tax</text>
</g>
<!-- mpg -->
<g id="node9" class="node">
<title>mpg</title>
<ellipse fill="white" stroke="white" cx="252.58" cy="-92.23" rx="31.4" ry="18"/>
<text text-anchor="middle" x="252.58" y="-88.53" font-family="Times,serif" font-size="14.00">mpg</text>
</g>
<!-- __0:clusterA -->
<!-- __0:clusterA&#45;&#45;price -->
<g id="edge5" class="edge">
<title>__0:clusterA&#45;&#45;price</title>
<path fill="none" stroke="black" d="M245.16,-154.38C270.27,-133.46 294.29,-113.44 311.63,-98.99"/>
<polygon fill="black" stroke="black" points="314.14,-101.45 319.59,-92.36 309.66,-96.08 314.14,-101.45"/>
</g>
<!-- __1:clusterA -->
<!-- __1:clusterA&#45;&#45;tax -->
<g id="edge6" class="edge">
<title>__1:clusterA&#45;&#45;tax</title>
<path fill="none" stroke="black" d="M201.49,-152.39C230.46,-114.18 260.72,-74.27 279.45,-49.56"/>
<polygon fill="black" stroke="black" points="282.32,-51.57 285.57,-41.48 276.74,-47.34 282.32,-51.57"/>
</g>
<!-- __2:clusterA -->
<!-- __2:clusterA&#45;&#45;mpg -->
<g id="edge7" class="edge">
<title>__2:clusterA&#45;&#45;mpg</title>
<path fill="none" stroke="black" d="M204.87,-152.51C215.43,-139.17 225.33,-126.66 233.35,-116.53"/>
<polygon fill="black" stroke="black" points="236.15,-118.63 239.61,-108.62 230.66,-114.29 236.15,-118.63"/>
</g>
<!-- __3:clusterB -->
<!-- __3:clusterB&#45;&#45;price -->
<g id="edge8" class="edge">
<title>__3:clusterB&#45;&#45;price</title>
<path fill="none" stroke="black" d="M403.32,-202.24C387.64,-172.04 366.07,-130.48 352.13,-103.64"/>
<polygon fill="black" stroke="black" points="355.08,-101.73 347.37,-94.46 348.87,-104.95 355.08,-101.73"/>
</g>
</g>
</svg>
