<?xml version="1.0" encoding="utf-8" standalone="no"?>
<!DOCTYPE svg PUBLIC "-//W3C//DTD SVG 1.1//EN"
  "http://www.w3.org/Graphics/SVG/1.1/DTD/svg11.dtd">
<svg height="288pt" version="1.1" viewBox="0 0 720 288" width="720pt" xmlns="http://www.w3.org/2000/svg" xmlns:xlink="http://www.w3.org/1999/xlink">
 <metadata>
  <rdf:RDF xmlns:cc="http://creativecommons.org/ns#" xmlns:dc="http://purl.org/dc/elements/1.1/" xmlns:rdf="http://www.w3.org/1999/02/22-rdf-syntax-ns#">
   <cc:Work>
    <dc:type rdf:resource="http://purl.org/dc/dcmitype/StillImage"/>
    <dc:date>2021-06-05T23:10:23.343243</dc:date>
    <dc:format>image/svg+xml</dc:format>
    <dc:creator>
     <cc:Agent>
      <dc:title>Matplotlib v3.4.1, https://matplotlib.org/</dc:title>
     </cc:Agent>
    </dc:creator>
   </cc:Work>
  </rdf:RDF>
 </metadata>
 <defs>
  <style type="text/css">*{stroke-linecap:butt;stroke-linejoin:round;}</style>
 </defs>
 <g id="figure_1">
  <g id="patch_1">
   <path d="M 0 288 
L 720 288 
L 720 0 
L 0 0 
z
" style="fill:none;"/>
  </g>
  <g id="axes_1">
   <g id="patch_2">
    <path d="M 56.925 143.46 
L 709.2 143.46 
L 709.2 10.8 
L 56.925 10.8 
z
" style="fill:#ffffff;"/>
   </g>
   <g id="PolyCollection_1">
    <defs>
     <path d="M 165.65313 -150.57 
L 165.62187 -150.57 
L 165.597959 -151.746543 
L 165.562345 -152.923086 
L 165.529761 -154.09963 
L 165.518893 -155.276173 
L 165.529152 -156.452716 
L 165.533761 -157.629259 
L 165.505582 -158.805802 
L 165.45074 -159.982346 
L 165.410652 -161.158889 
L 165.423009 -162.335432 
L 165.483234 -163.511975 
L 165.553425 -164.688518 
L 165.602199 -165.865061 
L 165.623162 -167.041605 
L 165.622162 -168.218148 
L 165.602691 -169.394691 
L 165.567499 -170.571234 
L 165.526977 -171.747777 
L 165.493803 -172.924321 
L 165.464935 -174.100864 
L 165.421796 -175.277407 
L 165.35452 -176.45395 
L 165.26731 -177.630493 
L 165.155159 -178.807037 
L 165.004571 -179.98358 
L 164.826888 -181.160123 
L 164.669038 -182.336666 
L 164.588495 -183.513209 
L 164.618208 -184.689753 
L 164.730318 -185.866296 
L 164.83168 -187.042839 
L 164.827911 -188.219382 
L 164.692665 -189.395925 
L 164.450301 -190.572469 
L 164.126558 -191.749012 
L 163.765973 -192.925555 
L 163.447763 -194.102098 
L 163.212789 -195.278641 
L 162.993595 -196.455184 
L 162.645381 -197.631728 
L 162.021199 -198.808271 
L 161.001769 -199.984814 
L 159.479796 -201.161357 
L 157.365128 -202.3379 
L 154.620696 -203.514444 
L 151.24105 -204.690987 
L 147.192231 -205.86753 
L 142.465303 -207.044073 
L 137.15855 -208.220616 
L 131.319114 -209.39716 
L 124.705699 -210.573703 
L 116.981177 -211.750246 
L 108.281416 -212.926789 
L 99.459479 -214.103332 
L 91.664581 -215.279876 
L 85.705485 -216.456419 
L 81.768402 -217.632962 
L 79.563451 -218.809505 
L 78.6675 -219.986048 
L 78.898501 -221.162592 
L 80.483204 -222.339135 
L 83.751707 -223.515678 
L 88.629716 -224.692221 
L 94.456308 -225.868764 
L 100.117902 -227.045307 
L 104.377858 -228.221851 
L 106.526117 -229.398394 
L 106.955218 -230.574937 
L 106.980745 -231.75148 
L 108.0553 -232.928023 
L 111.071646 -234.104567 
L 116.103486 -235.28111 
L 122.5859 -236.457653 
L 129.680305 -237.634196 
L 136.48719 -238.810739 
L 142.184097 -239.987283 
L 146.295544 -241.163826 
L 148.894017 -242.340369 
L 150.486155 -243.516912 
L 151.69385 -244.693455 
L 152.964948 -245.869999 
L 154.448549 -247.046542 
L 156.047317 -248.223085 
L 157.539958 -249.399628 
L 158.718704 -250.576171 
L 159.560544 -251.752715 
L 160.286902 -252.929258 
L 161.170118 -254.105801 
L 162.279836 -255.282344 
L 163.44513 -256.458887 
L 164.420355 -257.63543 
L 165.060361 -258.811974 
L 165.377355 -259.988517 
L 165.484986 -261.16506 
L 165.508962 -262.341603 
L 165.527997 -263.518146 
L 165.562099 -264.69469 
L 165.597933 -265.871233 
L 165.621868 -267.047776 
L 165.653132 -267.047776 
L 165.653132 -267.047776 
L 165.677067 -265.871233 
L 165.712901 -264.69469 
L 165.747003 -263.518146 
L 165.766038 -262.341603 
L 165.790014 -261.16506 
L 165.897645 -259.988517 
L 166.214639 -258.811974 
L 166.854645 -257.63543 
L 167.82987 -256.458887 
L 168.995164 -255.282344 
L 170.104882 -254.105801 
L 170.988098 -252.929258 
L 171.714456 -251.752715 
L 172.556296 -250.576171 
L 173.735042 -249.399628 
L 175.227683 -248.223085 
L 176.826451 -247.046542 
L 178.310052 -245.869999 
L 179.58115 -244.693455 
L 180.788845 -243.516912 
L 182.380983 -242.340369 
L 184.979456 -241.163826 
L 189.090903 -239.987283 
L 194.78781 -238.810739 
L 201.594695 -237.634196 
L 208.6891 -236.457653 
L 215.171514 -235.28111 
L 220.203354 -234.104567 
L 223.2197 -232.928023 
L 224.294255 -231.75148 
L 224.319782 -230.574937 
L 224.748883 -229.398394 
L 226.897142 -228.221851 
L 231.157098 -227.045307 
L 236.818692 -225.868764 
L 242.645284 -224.692221 
L 247.523293 -223.515678 
L 250.791796 -222.339135 
L 252.376499 -221.162592 
L 252.6075 -219.986048 
L 251.711549 -218.809505 
L 249.506598 -217.632962 
L 245.569515 -216.456419 
L 239.610419 -215.279876 
L 231.815521 -214.103332 
L 222.993584 -212.926789 
L 214.293823 -211.750246 
L 206.569301 -210.573703 
L 199.955886 -209.39716 
L 194.11645 -208.220616 
L 188.809697 -207.044073 
L 184.082769 -205.86753 
L 180.03395 -204.690987 
L 176.654304 -203.514444 
L 173.909872 -202.3379 
L 171.795204 -201.161357 
L 170.273231 -199.984814 
L 169.253801 -198.808271 
L 168.629619 -197.631728 
L 168.281405 -196.455184 
L 168.062211 -195.278641 
L 167.827237 -194.102098 
L 167.509027 -192.925555 
L 167.148442 -191.749012 
L 166.824699 -190.572469 
L 166.582335 -189.395925 
L 166.447089 -188.219382 
L 166.44332 -187.042839 
L 166.544682 -185.866296 
L 166.656792 -184.689753 
L 166.686505 -183.513209 
L 166.605962 -182.336666 
L 166.448112 -181.160123 
L 166.270429 -179.98358 
L 166.119841 -178.807037 
L 166.00769 -177.630493 
L 165.92048 -176.45395 
L 165.853204 -175.277407 
L 165.810065 -174.100864 
L 165.781197 -172.924321 
L 165.748023 -171.747777 
L 165.707501 -170.571234 
L 165.672309 -169.394691 
L 165.652838 -168.218148 
L 165.651838 -167.041605 
L 165.672801 -165.865061 
L 165.721575 -164.688518 
L 165.791766 -163.511975 
L 165.851991 -162.335432 
L 165.864348 -161.158889 
L 165.82426 -159.982346 
L 165.769418 -158.805802 
L 165.741239 -157.629259 
L 165.745848 -156.452716 
L 165.756107 -155.276173 
L 165.745239 -154.09963 
L 165.712655 -152.923086 
L 165.677041 -151.746543 
L 165.65313 -150.57 
z
" id="m2c1f9e3721" style="stroke:#3d3d3d;stroke-width:1.5;"/>
    </defs>
    <g clip-path="url(#pa00badae68)">
     <use style="fill:#3274a1;stroke:#3d3d3d;stroke-width:1.5;" x="0" xlink:href="#m2c1f9e3721" y="288"/>
    </g>
   </g>
   <g id="PolyCollection_2">
    <defs>
     <path d="M 383.090236 -155.282336 
L 383.034764 -155.282336 
L 382.997472 -156.218494 
L 382.935963 -157.154652 
L 382.857176 -158.090811 
L 382.782255 -159.026969 
L 382.735662 -159.963127 
L 382.728122 -160.899285 
L 382.750866 -161.835443 
L 382.786219 -162.771602 
L 382.820033 -163.70776 
L 382.844073 -164.643918 
L 382.85341 -165.580076 
L 382.844868 -166.516235 
L 382.811665 -167.452393 
L 382.735028 -168.388551 
L 382.589363 -169.324709 
L 382.369176 -170.260868 
L 382.113166 -171.197026 
L 381.888948 -172.133184 
L 381.740376 -173.069342 
L 381.651006 -174.005501 
L 381.570922 -174.941659 
L 381.480056 -175.877817 
L 381.408195 -176.813975 
L 381.382569 -177.750134 
L 381.371742 -178.686292 
L 381.300806 -179.62245 
L 381.116422 -180.558608 
L 380.827387 -181.494767 
L 380.500263 -182.430925 
L 380.233985 -183.367083 
L 380.112524 -184.303241 
L 380.140827 -185.239399 
L 380.227315 -186.175558 
L 380.25776 -187.111716 
L 380.194505 -188.047874 
L 380.089647 -188.984032 
L 379.994301 -189.920191 
L 379.864049 -190.856349 
L 379.567198 -191.792507 
L 378.988357 -192.728665 
L 378.108274 -193.664824 
L 376.967308 -194.600982 
L 375.563039 -195.53714 
L 373.809406 -196.473298 
L 371.590634 -197.409457 
L 368.813802 -198.345615 
L 365.387167 -199.281773 
L 361.194441 -200.217931 
L 356.178956 -201.15409 
L 350.491346 -202.090248 
L 344.488699 -203.026406 
L 338.487476 -203.962564 
L 332.49959 -204.898723 
L 326.28394 -205.834881 
L 319.713174 -206.771039 
L 313.077435 -207.707197 
L 307.00965 -208.643356 
L 302.13123 -209.579514 
L 298.758129 -210.515672 
L 296.842851 -211.45183 
L 296.0925 -212.387988 
L 296.191039 -213.324147 
L 297.055946 -214.260305 
L 298.927502 -215.196463 
L 302.144447 -216.132621 
L 306.793439 -217.06878 
L 312.566601 -218.004938 
L 318.896294 -218.941096 
L 325.143519 -219.877254 
L 330.668333 -220.813413 
L 334.876214 -221.749571 
L 337.402466 -222.685729 
L 338.359997 -223.621887 
L 338.401883 -224.558046 
L 338.49914 -225.494204 
L 339.565759 -226.430362 
L 342.114926 -227.36652 
L 346.090919 -228.302679 
L 350.978944 -229.238837 
L 356.143646 -230.174995 
L 361.139635 -231.111153 
L 365.763164 -232.047312 
L 369.906263 -232.98347 
L 373.452417 -233.919628 
L 376.30528 -234.855786 
L 378.448388 -235.791945 
L 379.953121 -236.728103 
L 380.9527 -237.664261 
L 381.607056 -238.600419 
L 382.056475 -239.536577 
L 382.382999 -240.472736 
L 382.613196 -241.408894 
L 382.756709 -242.345052 
L 382.837076 -243.28121 
L 382.888505 -244.217369 
L 382.934903 -245.153527 
L 382.980343 -246.089685 
L 383.017893 -247.025843 
L 383.042421 -247.962002 
L 383.082579 -247.962002 
L 383.082579 -247.962002 
L 383.107107 -247.025843 
L 383.144657 -246.089685 
L 383.190097 -245.153527 
L 383.236495 -244.217369 
L 383.287924 -243.28121 
L 383.368291 -242.345052 
L 383.511804 -241.408894 
L 383.742001 -240.472736 
L 384.068525 -239.536577 
L 384.517944 -238.600419 
L 385.1723 -237.664261 
L 386.171879 -236.728103 
L 387.676612 -235.791945 
L 389.81972 -234.855786 
L 392.672583 -233.919628 
L 396.218737 -232.98347 
L 400.361836 -232.047312 
L 404.985365 -231.111153 
L 409.981354 -230.174995 
L 415.146056 -229.238837 
L 420.034081 -228.302679 
L 424.010074 -227.36652 
L 426.559241 -226.430362 
L 427.62586 -225.494204 
L 427.723117 -224.558046 
L 427.765003 -223.621887 
L 428.722534 -222.685729 
L 431.248786 -221.749571 
L 435.456667 -220.813413 
L 440.981481 -219.877254 
L 447.228706 -218.941096 
L 453.558399 -218.004938 
L 459.331561 -217.06878 
L 463.980553 -216.132621 
L 467.197498 -215.196463 
L 469.069054 -214.260305 
L 469.933961 -213.324147 
L 470.0325 -212.387988 
L 469.282149 -211.45183 
L 467.366871 -210.515672 
L 463.99377 -209.579514 
L 459.11535 -208.643356 
L 453.047565 -207.707197 
L 446.411826 -206.771039 
L 439.84106 -205.834881 
L 433.62541 -204.898723 
L 427.637524 -203.962564 
L 421.636301 -203.026406 
L 415.633654 -202.090248 
L 409.946044 -201.15409 
L 404.930559 -200.217931 
L 400.737833 -199.281773 
L 397.311198 -198.345615 
L 394.534366 -197.409457 
L 392.315594 -196.473298 
L 390.561961 -195.53714 
L 389.157692 -194.600982 
L 388.016726 -193.664824 
L 387.136643 -192.728665 
L 386.557802 -191.792507 
L 386.260951 -190.856349 
L 386.130699 -189.920191 
L 386.035353 -188.984032 
L 385.930495 -188.047874 
L 385.86724 -187.111716 
L 385.897685 -186.175558 
L 385.984173 -185.239399 
L 386.012476 -184.303241 
L 385.891015 -183.367083 
L 385.624737 -182.430925 
L 385.297613 -181.494767 
L 385.008578 -180.558608 
L 384.824194 -179.62245 
L 384.753258 -178.686292 
L 384.742431 -177.750134 
L 384.716805 -176.813975 
L 384.644944 -175.877817 
L 384.554078 -174.941659 
L 384.473994 -174.005501 
L 384.384624 -173.069342 
L 384.236052 -172.133184 
L 384.011834 -171.197026 
L 383.755824 -170.260868 
L 383.535637 -169.324709 
L 383.389972 -168.388551 
L 383.313335 -167.452393 
L 383.280132 -166.516235 
L 383.27159 -165.580076 
L 383.280927 -164.643918 
L 383.304967 -163.70776 
L 383.338781 -162.771602 
L 383.374134 -161.835443 
L 383.396878 -160.899285 
L 383.389338 -159.963127 
L 383.342745 -159.026969 
L 383.267824 -158.090811 
L 383.189037 -157.154652 
L 383.127528 -156.218494 
L 383.090236 -155.282336 
z
" id="m9f3a9699ba" style="stroke:#3d3d3d;stroke-width:1.5;"/>
    </defs>
    <g clip-path="url(#pa00badae68)">
     <use style="fill:#e1812c;stroke:#3d3d3d;stroke-width:1.5;" x="0" xlink:href="#m9f3a9699ba" y="288"/>
    </g>
   </g>
   <g id="PolyCollection_3">
    <defs>
     <path d="M 600.501664 -187.758475 
L 600.473336 -187.758475 
L 600.451965 -188.601015 
L 600.416191 -189.443556 
L 600.371674 -190.286097 
L 600.333206 -191.128637 
L 600.317088 -191.971178 
L 600.330741 -192.813719 
L 600.367861 -193.656259 
L 600.412534 -194.4988 
L 600.449435 -195.341341 
L 600.472024 -196.183881 
L 600.48249 -197.026422 
L 600.486078 -197.868963 
L 600.486333 -198.711503 
L 600.483104 -199.554044 
L 600.470546 -200.396585 
L 600.432901 -201.239125 
L 600.339725 -202.081666 
L 600.146676 -202.924207 
L 599.808556 -203.766747 
L 599.301988 -204.609288 
L 598.638401 -205.451829 
L 597.8471 -206.294369 
L 596.939924 -207.13691 
L 595.893892 -207.979451 
L 594.666946 -208.821991 
L 593.23732 -209.664532 
L 591.636855 -210.507073 
L 589.901331 -211.349613 
L 587.933269 -212.192154 
L 585.47449 -213.034695 
L 582.310134 -213.877235 
L 578.460753 -214.719776 
L 574.102454 -215.562316 
L 569.363766 -216.404857 
L 564.278675 -217.247398 
L 558.87137 -218.089938 
L 553.195629 -218.932479 
L 547.31401 -219.77502 
L 541.302641 -220.61756 
L 535.313004 -221.460101 
L 529.654945 -222.302642 
L 524.792169 -223.145182 
L 521.176557 -223.987723 
L 519.015808 -224.830264 
L 518.097642 -225.672804 
L 517.769141 -226.515345 
L 517.22593 -227.357886 
L 516.040019 -228.200426 
L 514.511408 -229.042967 
L 513.5175 -229.885508 
L 513.911639 -230.728048 
L 515.934546 -231.570589 
L 519.228433 -232.41313 
L 523.373493 -233.25567 
L 528.197169 -234.098211 
L 533.619442 -234.940752 
L 539.551431 -235.783292 
L 546.014332 -236.625833 
L 553.059796 -237.468374 
L 560.42571 -238.310914 
L 567.412311 -239.153455 
L 573.203777 -239.995996 
L 577.288749 -240.838536 
L 579.612204 -241.681077 
L 580.48362 -242.523618 
L 580.452928 -243.366158 
L 580.197147 -244.208699 
L 580.325738 -245.05124 
L 581.162599 -245.89378 
L 582.685924 -246.736321 
L 584.644473 -247.578862 
L 586.714496 -248.421402 
L 588.625494 -249.263943 
L 590.24413 -250.106484 
L 591.579995 -250.949024 
L 592.713289 -251.791565 
L 593.72004 -252.634105 
L 594.654328 -253.476646 
L 595.561189 -254.319187 
L 596.467456 -255.161727 
L 597.358905 -256.004268 
L 598.182876 -256.846809 
L 598.875054 -257.689349 
L 599.392679 -258.53189 
L 599.743636 -259.374431 
L 599.98211 -260.216971 
L 600.162602 -261.059512 
L 600.303864 -261.902053 
L 600.400344 -262.744593 
L 600.450662 -263.587134 
L 600.464499 -264.429675 
L 600.453451 -265.272215 
L 600.427814 -266.114756 
L 600.401276 -266.957297 
L 600.389908 -267.799837 
L 600.401407 -268.642378 
L 600.428336 -269.484919 
L 600.455828 -270.327459 
L 600.474293 -271.17 
L 600.500707 -271.17 
L 600.500707 -271.17 
L 600.519172 -270.327459 
L 600.546664 -269.484919 
L 600.573593 -268.642378 
L 600.585092 -267.799837 
L 600.573724 -266.957297 
L 600.547186 -266.114756 
L 600.521549 -265.272215 
L 600.510501 -264.429675 
L 600.524338 -263.587134 
L 600.574656 -262.744593 
L 600.671136 -261.902053 
L 600.812398 -261.059512 
L 600.99289 -260.216971 
L 601.231364 -259.374431 
L 601.582321 -258.53189 
L 602.099946 -257.689349 
L 602.792124 -256.846809 
L 603.616095 -256.004268 
L 604.507544 -255.161727 
L 605.413811 -254.319187 
L 606.320672 -253.476646 
L 607.25496 -252.634105 
L 608.261711 -251.791565 
L 609.395005 -250.949024 
L 610.73087 -250.106484 
L 612.349506 -249.263943 
L 614.260504 -248.421402 
L 616.330527 -247.578862 
L 618.289076 -246.736321 
L 619.812401 -245.89378 
L 620.649262 -245.05124 
L 620.777853 -244.208699 
L 620.522072 -243.366158 
L 620.49138 -242.523618 
L 621.362796 -241.681077 
L 623.686251 -240.838536 
L 627.771223 -239.995996 
L 633.562689 -239.153455 
L 640.54929 -238.310914 
L 647.915204 -237.468374 
L 654.960668 -236.625833 
L 661.423569 -235.783292 
L 667.355558 -234.940752 
L 672.777831 -234.098211 
L 677.601507 -233.25567 
L 681.746567 -232.41313 
L 685.040454 -231.570589 
L 687.063361 -230.728048 
L 687.4575 -229.885508 
L 686.463592 -229.042967 
L 684.934981 -228.200426 
L 683.74907 -227.357886 
L 683.205859 -226.515345 
L 682.877358 -225.672804 
L 681.959192 -224.830264 
L 679.798443 -223.987723 
L 676.182831 -223.145182 
L 671.320055 -222.302642 
L 665.661996 -221.460101 
L 659.672359 -220.61756 
L 653.66099 -219.77502 
L 647.779371 -218.932479 
L 642.10363 -218.089938 
L 636.696325 -217.247398 
L 631.611234 -216.404857 
L 626.872546 -215.562316 
L 622.514247 -214.719776 
L 618.664866 -213.877235 
L 615.50051 -213.034695 
L 613.041731 -212.192154 
L 611.073669 -211.349613 
L 609.338145 -210.507073 
L 607.73768 -209.664532 
L 606.308054 -208.821991 
L 605.081108 -207.979451 
L 604.035076 -207.13691 
L 603.1279 -206.294369 
L 602.336599 -205.451829 
L 601.673012 -204.609288 
L 601.166444 -203.766747 
L 600.828324 -202.924207 
L 600.635275 -202.081666 
L 600.542099 -201.239125 
L 600.504454 -200.396585 
L 600.491896 -199.554044 
L 600.488667 -198.711503 
L 600.488922 -197.868963 
L 600.49251 -197.026422 
L 600.502976 -196.183881 
L 600.525565 -195.341341 
L 600.562466 -194.4988 
L 600.607139 -193.656259 
L 600.644259 -192.813719 
L 600.657912 -191.971178 
L 600.641794 -191.128637 
L 600.603326 -190.286097 
L 600.558809 -189.443556 
L 600.523035 -188.601015 
L 600.501664 -187.758475 
z
" id="m7d36f366da" style="stroke:#3d3d3d;stroke-width:1.5;"/>
    </defs>
    <g clip-path="url(#pa00badae68)">
     <use style="fill:#3a923a;stroke:#3d3d3d;stroke-width:1.5;" x="0" xlink:href="#m7d36f366da" y="288"/>
    </g>
   </g>
   <g id="matplotlib.axis_1">
    <g id="xtick_1">
     <g id="line2d_1">
      <defs>
       <path d="M 0 0 
L 0 3.5 
" id="m22d9acf669" style="stroke:#000000;stroke-width:0.8;"/>
      </defs>
      <g>
       <use style="stroke:#000000;stroke-width:0.8;" x="165.6375" xlink:href="#m22d9acf669" y="143.46"/>
      </g>
     </g>
    </g>
    <g id="xtick_2">
     <g id="line2d_2">
      <g>
       <use style="stroke:#000000;stroke-width:0.8;" x="383.0625" xlink:href="#m22d9acf669" y="143.46"/>
      </g>
     </g>
    </g>
    <g id="xtick_3">
     <g id="line2d_3">
      <g>
       <use style="stroke:#000000;stroke-width:0.8;" x="600.4875" xlink:href="#m22d9acf669" y="143.46"/>
      </g>
     </g>
    </g>
   </g>
   <g id="matplotlib.axis_2">
    <g id="ytick_1">
     <g id="line2d_4">
      <defs>
       <path d="M 0 0 
L -3.5 0 
" id="m4cbe243912" style="stroke:#000000;stroke-width:0.8;"/>
      </defs>
      <g>
       <use style="stroke:#000000;stroke-width:0.8;" x="56.925" xlink:href="#m4cbe243912" y="137.477085"/>
      </g>
     </g>
     <g id="text_1">
      <!-- 3.0 -->
      <g transform="translate(34.021875 141.276304)scale(0.1 -0.1)">
       <defs>
        <path d="M 2597 2516 
Q 3050 2419 3304 2112 
Q 3559 1806 3559 1356 
Q 3559 666 3084 287 
Q 2609 -91 1734 -91 
Q 1441 -91 1130 -33 
Q 819 25 488 141 
L 488 750 
Q 750 597 1062 519 
Q 1375 441 1716 441 
Q 2309 441 2620 675 
Q 2931 909 2931 1356 
Q 2931 1769 2642 2001 
Q 2353 2234 1838 2234 
L 1294 2234 
L 1294 2753 
L 1863 2753 
Q 2328 2753 2575 2939 
Q 2822 3125 2822 3475 
Q 2822 3834 2567 4026 
Q 2313 4219 1838 4219 
Q 1578 4219 1281 4162 
Q 984 4106 628 3988 
L 628 4550 
Q 988 4650 1302 4700 
Q 1616 4750 1894 4750 
Q 2613 4750 3031 4423 
Q 3450 4097 3450 3541 
Q 3450 3153 3228 2886 
Q 3006 2619 2597 2516 
z
" id="DejaVuSans-33" transform="scale(0.015625)"/>
        <path d="M 684 794 
L 1344 794 
L 1344 0 
L 684 0 
L 684 794 
z
" id="DejaVuSans-2e" transform="scale(0.015625)"/>
        <path d="M 2034 4250 
Q 1547 4250 1301 3770 
Q 1056 3291 1056 2328 
Q 1056 1369 1301 889 
Q 1547 409 2034 409 
Q 2525 409 2770 889 
Q 3016 1369 3016 2328 
Q 3016 3291 2770 3770 
Q 2525 4250 2034 4250 
z
M 2034 4750 
Q 2819 4750 3233 4129 
Q 3647 3509 3647 2328 
Q 3647 1150 3233 529 
Q 2819 -91 2034 -91 
Q 1250 -91 836 529 
Q 422 1150 422 2328 
Q 422 3509 836 4129 
Q 1250 4750 2034 4750 
z
" id="DejaVuSans-30" transform="scale(0.015625)"/>
       </defs>
       <use xlink:href="#DejaVuSans-33"/>
       <use x="63.623047" xlink:href="#DejaVuSans-2e"/>
       <use x="95.410156" xlink:href="#DejaVuSans-30"/>
      </g>
     </g>
    </g>
    <g id="ytick_2">
     <g id="line2d_5">
      <g>
       <use style="stroke:#000000;stroke-width:0.8;" x="56.925" xlink:href="#m4cbe243912" y="109.441019"/>
      </g>
     </g>
     <g id="text_2">
      <!-- 3.5 -->
      <g transform="translate(34.021875 113.240238)scale(0.1 -0.1)">
       <defs>
        <path d="M 691 4666 
L 3169 4666 
L 3169 4134 
L 1269 4134 
L 1269 2991 
Q 1406 3038 1543 3061 
Q 1681 3084 1819 3084 
Q 2600 3084 3056 2656 
Q 3513 2228 3513 1497 
Q 3513 744 3044 326 
Q 2575 -91 1722 -91 
Q 1428 -91 1123 -41 
Q 819 9 494 109 
L 494 744 
Q 775 591 1075 516 
Q 1375 441 1709 441 
Q 2250 441 2565 725 
Q 2881 1009 2881 1497 
Q 2881 1984 2565 2268 
Q 2250 2553 1709 2553 
Q 1456 2553 1204 2497 
Q 953 2441 691 2322 
L 691 4666 
z
" id="DejaVuSans-35" transform="scale(0.015625)"/>
       </defs>
       <use xlink:href="#DejaVuSans-33"/>
       <use x="63.623047" xlink:href="#DejaVuSans-2e"/>
       <use x="95.410156" xlink:href="#DejaVuSans-35"/>
      </g>
     </g>
    </g>
    <g id="ytick_3">
     <g id="line2d_6">
      <g>
       <use style="stroke:#000000;stroke-width:0.8;" x="56.925" xlink:href="#m4cbe243912" y="81.404953"/>
      </g>
     </g>
     <g id="text_3">
      <!-- 4.0 -->
      <g transform="translate(34.021875 85.204172)scale(0.1 -0.1)">
       <defs>
        <path d="M 2419 4116 
L 825 1625 
L 2419 1625 
L 2419 4116 
z
M 2253 4666 
L 3047 4666 
L 3047 1625 
L 3713 1625 
L 3713 1100 
L 3047 1100 
L 3047 0 
L 2419 0 
L 2419 1100 
L 313 1100 
L 313 1709 
L 2253 4666 
z
" id="DejaVuSans-34" transform="scale(0.015625)"/>
       </defs>
       <use xlink:href="#DejaVuSans-34"/>
       <use x="63.623047" xlink:href="#DejaVuSans-2e"/>
       <use x="95.410156" xlink:href="#DejaVuSans-30"/>
      </g>
     </g>
    </g>
    <g id="ytick_4">
     <g id="line2d_7">
      <g>
       <use style="stroke:#000000;stroke-width:0.8;" x="56.925" xlink:href="#m4cbe243912" y="53.368887"/>
      </g>
     </g>
     <g id="text_4">
      <!-- 4.5 -->
      <g transform="translate(34.021875 57.168106)scale(0.1 -0.1)">
       <use xlink:href="#DejaVuSans-34"/>
       <use x="63.623047" xlink:href="#DejaVuSans-2e"/>
       <use x="95.410156" xlink:href="#DejaVuSans-35"/>
      </g>
     </g>
    </g>
    <g id="ytick_5">
     <g id="line2d_8">
      <g>
       <use style="stroke:#000000;stroke-width:0.8;" x="56.925" xlink:href="#m4cbe243912" y="25.332821"/>
      </g>
     </g>
     <g id="text_5">
      <!-- 5.0 -->
      <g transform="translate(34.021875 29.13204)scale(0.1 -0.1)">
       <use xlink:href="#DejaVuSans-35"/>
       <use x="63.623047" xlink:href="#DejaVuSans-2e"/>
       <use x="95.410156" xlink:href="#DejaVuSans-30"/>
      </g>
     </g>
    </g>
    <g id="text_6">
     <!-- log price -->
     <g transform="translate(27.942187 98.78625)rotate(-90)scale(0.1 -0.1)">
      <defs>
       <path d="M 603 4863 
L 1178 4863 
L 1178 0 
L 603 0 
L 603 4863 
z
" id="DejaVuSans-6c" transform="scale(0.015625)"/>
       <path d="M 1959 3097 
Q 1497 3097 1228 2736 
Q 959 2375 959 1747 
Q 959 1119 1226 758 
Q 1494 397 1959 397 
Q 2419 397 2687 759 
Q 2956 1122 2956 1747 
Q 2956 2369 2687 2733 
Q 2419 3097 1959 3097 
z
M 1959 3584 
Q 2709 3584 3137 3096 
Q 3566 2609 3566 1747 
Q 3566 888 3137 398 
Q 2709 -91 1959 -91 
Q 1206 -91 779 398 
Q 353 888 353 1747 
Q 353 2609 779 3096 
Q 1206 3584 1959 3584 
z
" id="DejaVuSans-6f" transform="scale(0.015625)"/>
       <path d="M 2906 1791 
Q 2906 2416 2648 2759 
Q 2391 3103 1925 3103 
Q 1463 3103 1205 2759 
Q 947 2416 947 1791 
Q 947 1169 1205 825 
Q 1463 481 1925 481 
Q 2391 481 2648 825 
Q 2906 1169 2906 1791 
z
M 3481 434 
Q 3481 -459 3084 -895 
Q 2688 -1331 1869 -1331 
Q 1566 -1331 1297 -1286 
Q 1028 -1241 775 -1147 
L 775 -588 
Q 1028 -725 1275 -790 
Q 1522 -856 1778 -856 
Q 2344 -856 2625 -561 
Q 2906 -266 2906 331 
L 2906 616 
Q 2728 306 2450 153 
Q 2172 0 1784 0 
Q 1141 0 747 490 
Q 353 981 353 1791 
Q 353 2603 747 3093 
Q 1141 3584 1784 3584 
Q 2172 3584 2450 3431 
Q 2728 3278 2906 2969 
L 2906 3500 
L 3481 3500 
L 3481 434 
z
" id="DejaVuSans-67" transform="scale(0.015625)"/>
       <path id="DejaVuSans-20" transform="scale(0.015625)"/>
       <path d="M 1159 525 
L 1159 -1331 
L 581 -1331 
L 581 3500 
L 1159 3500 
L 1159 2969 
Q 1341 3281 1617 3432 
Q 1894 3584 2278 3584 
Q 2916 3584 3314 3078 
Q 3713 2572 3713 1747 
Q 3713 922 3314 415 
Q 2916 -91 2278 -91 
Q 1894 -91 1617 61 
Q 1341 213 1159 525 
z
M 3116 1747 
Q 3116 2381 2855 2742 
Q 2594 3103 2138 3103 
Q 1681 3103 1420 2742 
Q 1159 2381 1159 1747 
Q 1159 1113 1420 752 
Q 1681 391 2138 391 
Q 2594 391 2855 752 
Q 3116 1113 3116 1747 
z
" id="DejaVuSans-70" transform="scale(0.015625)"/>
       <path d="M 2631 2963 
Q 2534 3019 2420 3045 
Q 2306 3072 2169 3072 
Q 1681 3072 1420 2755 
Q 1159 2438 1159 1844 
L 1159 0 
L 581 0 
L 581 3500 
L 1159 3500 
L 1159 2956 
Q 1341 3275 1631 3429 
Q 1922 3584 2338 3584 
Q 2397 3584 2469 3576 
Q 2541 3569 2628 3553 
L 2631 2963 
z
" id="DejaVuSans-72" transform="scale(0.015625)"/>
       <path d="M 603 3500 
L 1178 3500 
L 1178 0 
L 603 0 
L 603 3500 
z
M 603 4863 
L 1178 4863 
L 1178 4134 
L 603 4134 
L 603 4863 
z
" id="DejaVuSans-69" transform="scale(0.015625)"/>
       <path d="M 3122 3366 
L 3122 2828 
Q 2878 2963 2633 3030 
Q 2388 3097 2138 3097 
Q 1578 3097 1268 2742 
Q 959 2388 959 1747 
Q 959 1106 1268 751 
Q 1578 397 2138 397 
Q 2388 397 2633 464 
Q 2878 531 3122 666 
L 3122 134 
Q 2881 22 2623 -34 
Q 2366 -91 2075 -91 
Q 1284 -91 818 406 
Q 353 903 353 1747 
Q 353 2603 823 3093 
Q 1294 3584 2113 3584 
Q 2378 3584 2631 3529 
Q 2884 3475 3122 3366 
z
" id="DejaVuSans-63" transform="scale(0.015625)"/>
       <path d="M 3597 1894 
L 3597 1613 
L 953 1613 
Q 991 1019 1311 708 
Q 1631 397 2203 397 
Q 2534 397 2845 478 
Q 3156 559 3463 722 
L 3463 178 
Q 3153 47 2828 -22 
Q 2503 -91 2169 -91 
Q 1331 -91 842 396 
Q 353 884 353 1716 
Q 353 2575 817 3079 
Q 1281 3584 2069 3584 
Q 2775 3584 3186 3129 
Q 3597 2675 3597 1894 
z
M 3022 2063 
Q 3016 2534 2758 2815 
Q 2500 3097 2075 3097 
Q 1594 3097 1305 2825 
Q 1016 2553 972 2059 
L 3022 2063 
z
" id="DejaVuSans-65" transform="scale(0.015625)"/>
      </defs>
      <use xlink:href="#DejaVuSans-6c"/>
      <use x="27.783203" xlink:href="#DejaVuSans-6f"/>
      <use x="88.964844" xlink:href="#DejaVuSans-67"/>
      <use x="152.441406" xlink:href="#DejaVuSans-20"/>
      <use x="184.228516" xlink:href="#DejaVuSans-70"/>
      <use x="247.705078" xlink:href="#DejaVuSans-72"/>
      <use x="288.818359" xlink:href="#DejaVuSans-69"/>
      <use x="316.601562" xlink:href="#DejaVuSans-63"/>
      <use x="371.582031" xlink:href="#DejaVuSans-65"/>
     </g>
    </g>
   </g>
   <g id="line2d_9">
    <path clip-path="url(#pa00badae68)" d="M 165.6375 92.291887 
L 165.6375 34.729418 
" style="fill:none;stroke:#3d3d3d;stroke-linecap:square;stroke-width:1.5;"/>
   </g>
   <g id="line2d_10">
    <path clip-path="url(#pa00badae68)" d="M 165.6375 71.573794 
L 165.6375 56.770632 
" style="fill:none;stroke:#3d3d3d;stroke-linecap:square;stroke-width:4.5;"/>
   </g>
   <g id="line2d_11">
    <path clip-path="url(#pa00badae68)" d="M 383.0625 96.911383 
L 383.0625 50.215269 
" style="fill:none;stroke:#3d3d3d;stroke-linecap:square;stroke-width:1.5;"/>
   </g>
   <g id="line2d_12">
    <path clip-path="url(#pa00badae68)" d="M 383.0625 79.750516 
L 383.0625 67.730764 
" style="fill:none;stroke:#3d3d3d;stroke-linecap:square;stroke-width:4.5;"/>
   </g>
   <g id="line2d_13">
    <path clip-path="url(#pa00badae68)" d="M 600.4875 81.490334 
L 600.4875 36.470462 
" style="fill:none;stroke:#3d3d3d;stroke-linecap:square;stroke-width:1.5;"/>
   </g>
   <g id="line2d_14">
    <path clip-path="url(#pa00badae68)" d="M 600.4875 64.775531 
L 600.4875 53.349702 
" style="fill:none;stroke:#3d3d3d;stroke-linecap:square;stroke-width:4.5;"/>
   </g>
   <g id="patch_3">
    <path d="M 56.925 143.46 
L 56.925 10.8 
" style="fill:none;stroke:#000000;stroke-linecap:square;stroke-linejoin:miter;stroke-width:0.8;"/>
   </g>
   <g id="patch_4">
    <path d="M 709.2 143.46 
L 709.2 10.8 
" style="fill:none;stroke:#000000;stroke-linecap:square;stroke-linejoin:miter;stroke-width:0.8;"/>
   </g>
   <g id="patch_5">
    <path d="M 56.925 143.46 
L 709.2 143.46 
" style="fill:none;stroke:#000000;stroke-linecap:square;stroke-linejoin:miter;stroke-width:0.8;"/>
   </g>
   <g id="patch_6">
    <path d="M 56.925 10.8 
L 709.2 10.8 
" style="fill:none;stroke:#000000;stroke-linecap:square;stroke-linejoin:miter;stroke-width:0.8;"/>
   </g>
   <g id="PathCollection_1">
    <defs>
     <path d="M 0 1.5 
C 0.397805 1.5 0.77937 1.341951 1.06066 1.06066 
C 1.341951 0.77937 1.5 0.397805 1.5 0 
C 1.5 -0.397805 1.341951 -0.77937 1.06066 -1.06066 
C 0.77937 -1.341951 0.397805 -1.5 0 -1.5 
C -0.397805 -1.5 -0.77937 -1.341951 -1.06066 -1.06066 
C -1.341951 -0.77937 -1.5 -0.397805 -1.5 0 
C -1.5 0.397805 -1.341951 0.77937 -1.06066 1.06066 
C -0.77937 1.341951 -0.397805 1.5 0 1.5 
z
" id="m6c4f5d13a1" style="stroke:#3d3d3d;"/>
    </defs>
    <g clip-path="url(#pa00badae68)">
     <use style="fill:#ffffff;stroke:#3d3d3d;" x="165.6375" xlink:href="#m6c4f5d13a1" y="65.154586"/>
    </g>
   </g>
   <g id="PathCollection_2">
    <g clip-path="url(#pa00badae68)">
     <use style="fill:#ffffff;stroke:#3d3d3d;" x="383.0625" xlink:href="#m6c4f5d13a1" y="74.096861"/>
    </g>
   </g>
   <g id="PathCollection_3">
    <g clip-path="url(#pa00badae68)">
     <use style="fill:#ffffff;stroke:#3d3d3d;" x="600.4875" xlink:href="#m6c4f5d13a1" y="59.101351"/>
    </g>
   </g>
  </g>
  <g id="axes_2">
   <g id="patch_7">
    <path d="M 56.925 246.2 
L 709.2 246.2 
L 709.2 157.76 
L 56.925 157.76 
z
" style="fill:#ffffff;"/>
   </g>
   <g id="patch_8">
    <path clip-path="url(#p79cd4ea6d0)" d="M 78.6675 246.2 
L 252.6075 246.2 
L 252.6075 181.431009 
L 78.6675 181.431009 
z
" style="fill:#3274a1;"/>
   </g>
   <g id="patch_9">
    <path clip-path="url(#p79cd4ea6d0)" d="M 296.0925 246.2 
L 470.0325 246.2 
L 470.0325 200.583712 
L 296.0925 200.583712 
z
" style="fill:#e1812c;"/>
   </g>
   <g id="patch_10">
    <path clip-path="url(#p79cd4ea6d0)" d="M 513.5175 246.2 
L 687.4575 246.2 
L 687.4575 161.971429 
L 513.5175 161.971429 
z
" style="fill:#3a923a;"/>
   </g>
   <g id="matplotlib.axis_3">
    <g id="xtick_4">
     <g id="line2d_15">
      <g>
       <use style="stroke:#000000;stroke-width:0.8;" x="165.6375" xlink:href="#m22d9acf669" y="246.2"/>
      </g>
     </g>
     <g id="text_7">
      <!-- Automatic -->
      <g transform="translate(139.996094 260.798437)scale(0.1 -0.1)">
       <defs>
        <path d="M 2188 4044 
L 1331 1722 
L 3047 1722 
L 2188 4044 
z
M 1831 4666 
L 2547 4666 
L 4325 0 
L 3669 0 
L 3244 1197 
L 1141 1197 
L 716 0 
L 50 0 
L 1831 4666 
z
" id="DejaVuSans-41" transform="scale(0.015625)"/>
        <path d="M 544 1381 
L 544 3500 
L 1119 3500 
L 1119 1403 
Q 1119 906 1312 657 
Q 1506 409 1894 409 
Q 2359 409 2629 706 
Q 2900 1003 2900 1516 
L 2900 3500 
L 3475 3500 
L 3475 0 
L 2900 0 
L 2900 538 
Q 2691 219 2414 64 
Q 2138 -91 1772 -91 
Q 1169 -91 856 284 
Q 544 659 544 1381 
z
M 1991 3584 
L 1991 3584 
z
" id="DejaVuSans-75" transform="scale(0.015625)"/>
        <path d="M 1172 4494 
L 1172 3500 
L 2356 3500 
L 2356 3053 
L 1172 3053 
L 1172 1153 
Q 1172 725 1289 603 
Q 1406 481 1766 481 
L 2356 481 
L 2356 0 
L 1766 0 
Q 1100 0 847 248 
Q 594 497 594 1153 
L 594 3053 
L 172 3053 
L 172 3500 
L 594 3500 
L 594 4494 
L 1172 4494 
z
" id="DejaVuSans-74" transform="scale(0.015625)"/>
        <path d="M 3328 2828 
Q 3544 3216 3844 3400 
Q 4144 3584 4550 3584 
Q 5097 3584 5394 3201 
Q 5691 2819 5691 2113 
L 5691 0 
L 5113 0 
L 5113 2094 
Q 5113 2597 4934 2840 
Q 4756 3084 4391 3084 
Q 3944 3084 3684 2787 
Q 3425 2491 3425 1978 
L 3425 0 
L 2847 0 
L 2847 2094 
Q 2847 2600 2669 2842 
Q 2491 3084 2119 3084 
Q 1678 3084 1418 2786 
Q 1159 2488 1159 1978 
L 1159 0 
L 581 0 
L 581 3500 
L 1159 3500 
L 1159 2956 
Q 1356 3278 1631 3431 
Q 1906 3584 2284 3584 
Q 2666 3584 2933 3390 
Q 3200 3197 3328 2828 
z
" id="DejaVuSans-6d" transform="scale(0.015625)"/>
        <path d="M 2194 1759 
Q 1497 1759 1228 1600 
Q 959 1441 959 1056 
Q 959 750 1161 570 
Q 1363 391 1709 391 
Q 2188 391 2477 730 
Q 2766 1069 2766 1631 
L 2766 1759 
L 2194 1759 
z
M 3341 1997 
L 3341 0 
L 2766 0 
L 2766 531 
Q 2569 213 2275 61 
Q 1981 -91 1556 -91 
Q 1019 -91 701 211 
Q 384 513 384 1019 
Q 384 1609 779 1909 
Q 1175 2209 1959 2209 
L 2766 2209 
L 2766 2266 
Q 2766 2663 2505 2880 
Q 2244 3097 1772 3097 
Q 1472 3097 1187 3025 
Q 903 2953 641 2809 
L 641 3341 
Q 956 3463 1253 3523 
Q 1550 3584 1831 3584 
Q 2591 3584 2966 3190 
Q 3341 2797 3341 1997 
z
" id="DejaVuSans-61" transform="scale(0.015625)"/>
       </defs>
       <use xlink:href="#DejaVuSans-41"/>
       <use x="68.408203" xlink:href="#DejaVuSans-75"/>
       <use x="131.787109" xlink:href="#DejaVuSans-74"/>
       <use x="170.996094" xlink:href="#DejaVuSans-6f"/>
       <use x="232.177734" xlink:href="#DejaVuSans-6d"/>
       <use x="329.589844" xlink:href="#DejaVuSans-61"/>
       <use x="390.869141" xlink:href="#DejaVuSans-74"/>
       <use x="430.078125" xlink:href="#DejaVuSans-69"/>
       <use x="457.861328" xlink:href="#DejaVuSans-63"/>
      </g>
     </g>
    </g>
    <g id="xtick_5">
     <g id="line2d_16">
      <g>
       <use style="stroke:#000000;stroke-width:0.8;" x="383.0625" xlink:href="#m22d9acf669" y="246.2"/>
      </g>
     </g>
     <g id="text_8">
      <!-- Manual -->
      <g transform="translate(364.89375 260.798437)scale(0.1 -0.1)">
       <defs>
        <path d="M 628 4666 
L 1569 4666 
L 2759 1491 
L 3956 4666 
L 4897 4666 
L 4897 0 
L 4281 0 
L 4281 4097 
L 3078 897 
L 2444 897 
L 1241 4097 
L 1241 0 
L 628 0 
L 628 4666 
z
" id="DejaVuSans-4d" transform="scale(0.015625)"/>
        <path d="M 3513 2113 
L 3513 0 
L 2938 0 
L 2938 2094 
Q 2938 2591 2744 2837 
Q 2550 3084 2163 3084 
Q 1697 3084 1428 2787 
Q 1159 2491 1159 1978 
L 1159 0 
L 581 0 
L 581 3500 
L 1159 3500 
L 1159 2956 
Q 1366 3272 1645 3428 
Q 1925 3584 2291 3584 
Q 2894 3584 3203 3211 
Q 3513 2838 3513 2113 
z
" id="DejaVuSans-6e" transform="scale(0.015625)"/>
       </defs>
       <use xlink:href="#DejaVuSans-4d"/>
       <use x="86.279297" xlink:href="#DejaVuSans-61"/>
       <use x="147.558594" xlink:href="#DejaVuSans-6e"/>
       <use x="210.9375" xlink:href="#DejaVuSans-75"/>
       <use x="274.316406" xlink:href="#DejaVuSans-61"/>
       <use x="335.595703" xlink:href="#DejaVuSans-6c"/>
      </g>
     </g>
    </g>
    <g id="xtick_6">
     <g id="line2d_17">
      <g>
       <use style="stroke:#000000;stroke-width:0.8;" x="600.4875" xlink:href="#m22d9acf669" y="246.2"/>
      </g>
     </g>
     <g id="text_9">
      <!-- Semi-Auto -->
      <g transform="translate(574.677344 260.798437)scale(0.1 -0.1)">
       <defs>
        <path d="M 3425 4513 
L 3425 3897 
Q 3066 4069 2747 4153 
Q 2428 4238 2131 4238 
Q 1616 4238 1336 4038 
Q 1056 3838 1056 3469 
Q 1056 3159 1242 3001 
Q 1428 2844 1947 2747 
L 2328 2669 
Q 3034 2534 3370 2195 
Q 3706 1856 3706 1288 
Q 3706 609 3251 259 
Q 2797 -91 1919 -91 
Q 1588 -91 1214 -16 
Q 841 59 441 206 
L 441 856 
Q 825 641 1194 531 
Q 1563 422 1919 422 
Q 2459 422 2753 634 
Q 3047 847 3047 1241 
Q 3047 1584 2836 1778 
Q 2625 1972 2144 2069 
L 1759 2144 
Q 1053 2284 737 2584 
Q 422 2884 422 3419 
Q 422 4038 858 4394 
Q 1294 4750 2059 4750 
Q 2388 4750 2728 4690 
Q 3069 4631 3425 4513 
z
" id="DejaVuSans-53" transform="scale(0.015625)"/>
        <path d="M 313 2009 
L 1997 2009 
L 1997 1497 
L 313 1497 
L 313 2009 
z
" id="DejaVuSans-2d" transform="scale(0.015625)"/>
       </defs>
       <use xlink:href="#DejaVuSans-53"/>
       <use x="63.476562" xlink:href="#DejaVuSans-65"/>
       <use x="125" xlink:href="#DejaVuSans-6d"/>
       <use x="222.412109" xlink:href="#DejaVuSans-69"/>
       <use x="250.195312" xlink:href="#DejaVuSans-2d"/>
       <use x="284.029297" xlink:href="#DejaVuSans-41"/>
       <use x="352.4375" xlink:href="#DejaVuSans-75"/>
       <use x="415.816406" xlink:href="#DejaVuSans-74"/>
       <use x="455.025391" xlink:href="#DejaVuSans-6f"/>
      </g>
     </g>
    </g>
    <g id="text_10">
     <!-- transmission -->
     <g transform="translate(351.123438 274.476562)scale(0.1 -0.1)">
      <defs>
       <path d="M 2834 3397 
L 2834 2853 
Q 2591 2978 2328 3040 
Q 2066 3103 1784 3103 
Q 1356 3103 1142 2972 
Q 928 2841 928 2578 
Q 928 2378 1081 2264 
Q 1234 2150 1697 2047 
L 1894 2003 
Q 2506 1872 2764 1633 
Q 3022 1394 3022 966 
Q 3022 478 2636 193 
Q 2250 -91 1575 -91 
Q 1294 -91 989 -36 
Q 684 19 347 128 
L 347 722 
Q 666 556 975 473 
Q 1284 391 1588 391 
Q 1994 391 2212 530 
Q 2431 669 2431 922 
Q 2431 1156 2273 1281 
Q 2116 1406 1581 1522 
L 1381 1569 
Q 847 1681 609 1914 
Q 372 2147 372 2553 
Q 372 3047 722 3315 
Q 1072 3584 1716 3584 
Q 2034 3584 2315 3537 
Q 2597 3491 2834 3397 
z
" id="DejaVuSans-73" transform="scale(0.015625)"/>
      </defs>
      <use xlink:href="#DejaVuSans-74"/>
      <use x="39.208984" xlink:href="#DejaVuSans-72"/>
      <use x="80.322266" xlink:href="#DejaVuSans-61"/>
      <use x="141.601562" xlink:href="#DejaVuSans-6e"/>
      <use x="204.980469" xlink:href="#DejaVuSans-73"/>
      <use x="257.080078" xlink:href="#DejaVuSans-6d"/>
      <use x="354.492188" xlink:href="#DejaVuSans-69"/>
      <use x="382.275391" xlink:href="#DejaVuSans-73"/>
      <use x="434.375" xlink:href="#DejaVuSans-73"/>
      <use x="486.474609" xlink:href="#DejaVuSans-69"/>
      <use x="514.257812" xlink:href="#DejaVuSans-6f"/>
      <use x="575.439453" xlink:href="#DejaVuSans-6e"/>
     </g>
    </g>
   </g>
   <g id="matplotlib.axis_4">
    <g id="ytick_6">
     <g id="line2d_18">
      <g>
       <use style="stroke:#000000;stroke-width:0.8;" x="56.925" xlink:href="#m4cbe243912" y="246.2"/>
      </g>
     </g>
     <g id="text_11">
      <!-- 0 -->
      <g transform="translate(43.5625 249.999219)scale(0.1 -0.1)">
       <use xlink:href="#DejaVuSans-30"/>
      </g>
     </g>
    </g>
    <g id="ytick_7">
     <g id="line2d_19">
      <g>
       <use style="stroke:#000000;stroke-width:0.8;" x="56.925" xlink:href="#m4cbe243912" y="210.096883"/>
      </g>
     </g>
     <g id="text_12">
      <!-- 2000 -->
      <g transform="translate(24.475 213.896102)scale(0.1 -0.1)">
       <defs>
        <path d="M 1228 531 
L 3431 531 
L 3431 0 
L 469 0 
L 469 531 
Q 828 903 1448 1529 
Q 2069 2156 2228 2338 
Q 2531 2678 2651 2914 
Q 2772 3150 2772 3378 
Q 2772 3750 2511 3984 
Q 2250 4219 1831 4219 
Q 1534 4219 1204 4116 
Q 875 4013 500 3803 
L 500 4441 
Q 881 4594 1212 4672 
Q 1544 4750 1819 4750 
Q 2544 4750 2975 4387 
Q 3406 4025 3406 3419 
Q 3406 3131 3298 2873 
Q 3191 2616 2906 2266 
Q 2828 2175 2409 1742 
Q 1991 1309 1228 531 
z
" id="DejaVuSans-32" transform="scale(0.015625)"/>
       </defs>
       <use xlink:href="#DejaVuSans-32"/>
       <use x="63.623047" xlink:href="#DejaVuSans-30"/>
       <use x="127.246094" xlink:href="#DejaVuSans-30"/>
       <use x="190.869141" xlink:href="#DejaVuSans-30"/>
      </g>
     </g>
    </g>
    <g id="ytick_8">
     <g id="line2d_20">
      <g>
       <use style="stroke:#000000;stroke-width:0.8;" x="56.925" xlink:href="#m4cbe243912" y="173.993766"/>
      </g>
     </g>
     <g id="text_13">
      <!-- 4000 -->
      <g transform="translate(24.475 177.792985)scale(0.1 -0.1)">
       <use xlink:href="#DejaVuSans-34"/>
       <use x="63.623047" xlink:href="#DejaVuSans-30"/>
       <use x="127.246094" xlink:href="#DejaVuSans-30"/>
       <use x="190.869141" xlink:href="#DejaVuSans-30"/>
      </g>
     </g>
    </g>
    <g id="text_14">
     <!-- count -->
     <g transform="translate(18.395312 216.08625)rotate(-90)scale(0.1 -0.1)">
      <use xlink:href="#DejaVuSans-63"/>
      <use x="54.980469" xlink:href="#DejaVuSans-6f"/>
      <use x="116.162109" xlink:href="#DejaVuSans-75"/>
      <use x="179.541016" xlink:href="#DejaVuSans-6e"/>
      <use x="242.919922" xlink:href="#DejaVuSans-74"/>
     </g>
    </g>
   </g>
   <g id="patch_11">
    <path d="M 56.925 246.2 
L 56.925 157.76 
" style="fill:none;stroke:#000000;stroke-linecap:square;stroke-linejoin:miter;stroke-width:0.8;"/>
   </g>
   <g id="patch_12">
    <path d="M 709.2 246.2 
L 709.2 157.76 
" style="fill:none;stroke:#000000;stroke-linecap:square;stroke-linejoin:miter;stroke-width:0.8;"/>
   </g>
   <g id="patch_13">
    <path d="M 56.925 246.2 
L 709.2 246.2 
" style="fill:none;stroke:#000000;stroke-linecap:square;stroke-linejoin:miter;stroke-width:0.8;"/>
   </g>
   <g id="patch_14">
    <path d="M 56.925 157.76 
L 709.2 157.76 
" style="fill:none;stroke:#000000;stroke-linecap:square;stroke-linejoin:miter;stroke-width:0.8;"/>
   </g>
  </g>
 </g>
 <defs>
  <clipPath id="pa00badae68">
   <rect height="132.66" width="652.275" x="56.925" y="10.8"/>
  </clipPath>
  <clipPath id="p79cd4ea6d0">
   <rect height="88.44" width="652.275" x="56.925" y="157.76"/>
  </clipPath>
 </defs>
</svg>
