<?xml version="1.0" encoding="utf-8" standalone="no"?>
<!DOCTYPE svg PUBLIC "-//W3C//DTD SVG 1.1//EN"
  "http://www.w3.org/Graphics/SVG/1.1/DTD/svg11.dtd">
<svg height="288pt" version="1.1" viewBox="0 0 720 288" width="720pt" xmlns="http://www.w3.org/2000/svg" xmlns:xlink="http://www.w3.org/1999/xlink">
 <metadata>
  <rdf:RDF xmlns:cc="http://creativecommons.org/ns#" xmlns:dc="http://purl.org/dc/elements/1.1/" xmlns:rdf="http://www.w3.org/1999/02/22-rdf-syntax-ns#">
   <cc:Work>
    <dc:type rdf:resource="http://purl.org/dc/dcmitype/StillImage"/>
    <dc:date>2021-06-05T23:10:22.623743</dc:date>
    <dc:format>image/svg+xml</dc:format>
    <dc:creator>
     <cc:Agent>
      <dc:title>Matplotlib v3.4.1, https://matplotlib.org/</dc:title>
     </cc:Agent>
    </dc:creator>
   </cc:Work>
  </rdf:RDF>
 </metadata>
 <defs>
  <style type="text/css">*{stroke-linecap:butt;stroke-linejoin:round;}</style>
 </defs>
 <g id="figure_1">
  <g id="patch_1">
   <path d="M 0 288 
L 720 288 
L 720 0 
L 0 0 
z
" style="fill:none;"/>
  </g>
  <g id="axes_1">
   <g id="patch_2">
    <path d="M 57.05 143.46 
L 709.2 143.46 
L 709.2 10.8 
L 57.05 10.8 
z
" style="fill:#ffffff;"/>
   </g>
   <g id="PolyCollection_1">
    <defs>
     <path d="M 122.273268 -155.660535 
L 122.256732 -155.660535 
L 122.240569 -156.827298 
L 122.213171 -157.99406 
L 122.185953 -159.160822 
L 122.178262 -160.327584 
L 122.19651 -161.494347 
L 122.2261 -162.661109 
L 122.249118 -163.827871 
L 122.26027 -164.994633 
L 122.263348 -166.161396 
L 122.260872 -167.328158 
L 122.248264 -168.49492 
L 122.214711 -169.661683 
L 122.155902 -170.828445 
L 122.091252 -171.995207 
L 122.052691 -173.161969 
L 122.046085 -174.328732 
L 122.047687 -175.495494 
L 122.042974 -176.662256 
L 122.033593 -177.829018 
L 122.010329 -178.995781 
L 121.959513 -180.162543 
L 121.889756 -181.329305 
L 121.827498 -182.496067 
L 121.795592 -183.66283 
L 121.796068 -184.829592 
L 121.801131 -185.996354 
L 121.771662 -187.163117 
L 121.691925 -188.329879 
L 121.57274 -189.496641 
L 121.411483 -190.663403 
L 121.171404 -191.830166 
L 120.828403 -192.996928 
L 120.407426 -194.16369 
L 119.926164 -195.330452 
L 119.327531 -196.497215 
L 118.503446 -197.663977 
L 117.349307 -198.830739 
L 115.753874 -199.997502 
L 113.60449 -201.164264 
L 110.926604 -202.331026 
L 107.957471 -203.497788 
L 104.880164 -204.664551 
L 101.568327 -205.831313 
L 97.873331 -206.998075 
L 94.0596 -208.164837 
L 90.601206 -209.3316 
L 87.591382 -210.498362 
L 84.683836 -211.665124 
L 81.607904 -212.831887 
L 78.539375 -213.998649 
L 75.901901 -215.165411 
L 73.879407 -216.332173 
L 72.331416 -217.498936 
L 71.118131 -218.665698 
L 70.284967 -219.83246 
L 70.093 -220.999222 
L 70.908177 -222.165985 
L 72.683582 -223.332747 
L 74.638356 -224.499509 
L 75.89062 -225.666271 
L 76.233313 -226.833034 
L 76.114359 -227.999796 
L 76.251427 -229.166558 
L 77.335823 -230.333321 
L 79.701637 -231.500083 
L 83.08609 -232.666845 
L 86.859019 -233.833607 
L 90.65127 -235.00037 
L 94.690939 -236.167132 
L 99.324136 -237.333894 
L 104.281389 -238.500656 
L 108.6582 -239.667419 
L 111.573376 -240.834181 
L 112.775198 -242.000943 
L 112.788583 -243.167706 
L 112.563799 -244.334468 
L 112.85992 -245.50123 
L 113.858953 -246.667992 
L 115.272797 -247.834755 
L 116.698462 -249.001517 
L 117.882434 -250.168279 
L 118.779167 -251.335041 
L 119.462163 -252.501804 
L 120.022705 -253.668566 
L 120.536916 -254.835328 
L 121.048264 -256.00209 
L 121.530879 -257.168853 
L 121.906841 -258.335615 
L 122.1297 -259.502377 
L 122.2264 -260.66914 
L 122.255826 -261.835902 
L 122.259069 -263.002664 
L 122.251046 -264.169426 
L 122.236299 -265.336189 
L 122.222899 -266.502951 
L 122.221337 -267.669713 
L 122.232995 -268.836475 
L 122.248419 -270.003238 
L 122.258929 -271.17 
L 122.271071 -271.17 
L 122.271071 -271.17 
L 122.281581 -270.003238 
L 122.297005 -268.836475 
L 122.308663 -267.669713 
L 122.307101 -266.502951 
L 122.293701 -265.336189 
L 122.278954 -264.169426 
L 122.270931 -263.002664 
L 122.274174 -261.835902 
L 122.3036 -260.66914 
L 122.4003 -259.502377 
L 122.623159 -258.335615 
L 122.999121 -257.168853 
L 123.481736 -256.00209 
L 123.993084 -254.835328 
L 124.507295 -253.668566 
L 125.067837 -252.501804 
L 125.750833 -251.335041 
L 126.647566 -250.168279 
L 127.831538 -249.001517 
L 129.257203 -247.834755 
L 130.671047 -246.667992 
L 131.67008 -245.50123 
L 131.966201 -244.334468 
L 131.741417 -243.167706 
L 131.754802 -242.000943 
L 132.956624 -240.834181 
L 135.8718 -239.667419 
L 140.248611 -238.500656 
L 145.205864 -237.333894 
L 149.839061 -236.167132 
L 153.87873 -235.00037 
L 157.670981 -233.833607 
L 161.44391 -232.666845 
L 164.828363 -231.500083 
L 167.194177 -230.333321 
L 168.278573 -229.166558 
L 168.415641 -227.999796 
L 168.296687 -226.833034 
L 168.63938 -225.666271 
L 169.891644 -224.499509 
L 171.846418 -223.332747 
L 173.621823 -222.165985 
L 174.437 -220.999222 
L 174.245033 -219.83246 
L 173.411869 -218.665698 
L 172.198584 -217.498936 
L 170.650593 -216.332173 
L 168.628099 -215.165411 
L 165.990625 -213.998649 
L 162.922096 -212.831887 
L 159.846164 -211.665124 
L 156.938618 -210.498362 
L 153.928794 -209.3316 
L 150.4704 -208.164837 
L 146.656669 -206.998075 
L 142.961673 -205.831313 
L 139.649836 -204.664551 
L 136.572529 -203.497788 
L 133.603396 -202.331026 
L 130.92551 -201.164264 
L 128.776126 -199.997502 
L 127.180693 -198.830739 
L 126.026554 -197.663977 
L 125.202469 -196.497215 
L 124.603836 -195.330452 
L 124.122574 -194.16369 
L 123.701597 -192.996928 
L 123.358596 -191.830166 
L 123.118517 -190.663403 
L 122.95726 -189.496641 
L 122.838075 -188.329879 
L 122.758338 -187.163117 
L 122.728869 -185.996354 
L 122.733932 -184.829592 
L 122.734408 -183.66283 
L 122.702502 -182.496067 
L 122.640244 -181.329305 
L 122.570487 -180.162543 
L 122.519671 -178.995781 
L 122.496407 -177.829018 
L 122.487026 -176.662256 
L 122.482313 -175.495494 
L 122.483915 -174.328732 
L 122.477309 -173.161969 
L 122.438748 -171.995207 
L 122.374098 -170.828445 
L 122.315289 -169.661683 
L 122.281736 -168.49492 
L 122.269128 -167.328158 
L 122.266652 -166.161396 
L 122.26973 -164.994633 
L 122.280882 -163.827871 
L 122.3039 -162.661109 
L 122.33349 -161.494347 
L 122.351738 -160.327584 
L 122.344047 -159.160822 
L 122.316829 -157.99406 
L 122.289431 -156.827298 
L 122.273268 -155.660535 
z
" id="me3e75efd53" style="stroke:#3d3d3d;stroke-width:1.5;"/>
    </defs>
    <g clip-path="url(#p8a9ad51398)">
     <use style="fill:#3274a1;stroke:#3d3d3d;stroke-width:1.5;" x="0" xlink:href="#me3e75efd53" y="288"/>
    </g>
   </g>
   <g id="PolyCollection_2">
    <defs>
     <path d="M 252.703342 -150.57 
L 252.686658 -150.57 
L 252.67454 -151.7426 
L 252.656438 -152.915201 
L 252.638902 -154.087801 
L 252.630821 -155.260402 
L 252.632941 -156.433002 
L 252.632931 -157.605603 
L 252.615268 -158.778203 
L 252.577867 -159.950804 
L 252.538023 -161.123404 
L 252.519136 -162.296005 
L 252.529661 -163.468605 
L 252.556461 -164.641206 
L 252.57891 -165.813806 
L 252.584516 -166.986407 
L 252.568582 -168.159007 
L 252.5281 -169.331608 
L 252.467133 -170.504208 
L 252.402319 -171.676809 
L 252.347736 -172.849409 
L 252.29614 -174.022009 
L 252.231667 -175.19461 
L 252.159825 -176.36721 
L 252.101584 -177.539811 
L 252.053226 -178.712411 
L 251.978297 -179.885012 
L 251.850602 -181.057612 
L 251.692609 -182.230213 
L 251.570549 -183.402813 
L 251.54744 -184.575414 
L 251.622129 -185.748014 
L 251.723992 -186.920615 
L 251.787922 -188.093215 
L 251.81326 -189.265816 
L 251.828331 -190.438416 
L 251.832468 -191.611017 
L 251.807499 -192.783617 
L 251.754126 -193.956218 
L 251.676471 -195.128818 
L 251.55359 -196.301418 
L 251.358277 -197.474019 
L 251.084956 -198.646619 
L 250.738828 -199.81922 
L 250.312349 -200.99182 
L 249.772293 -202.164421 
L 249.046058 -203.337021 
L 248.034238 -204.509622 
L 246.675275 -205.682222 
L 244.987089 -206.854823 
L 243.018288 -208.027423 
L 240.794301 -209.200024 
L 238.339723 -210.372624 
L 235.690087 -211.545225 
L 232.853929 -212.717825 
L 229.868814 -213.890426 
L 226.9413 -215.063026 
L 224.389761 -216.235627 
L 222.325397 -217.408227 
L 220.422801 -218.580827 
L 218.038403 -219.753428 
L 214.578095 -220.926028 
L 209.983428 -222.098629 
L 205.1257 -223.271229 
L 201.566274 -224.44383 
L 200.523 -225.61643 
L 201.941188 -226.789031 
L 204.651854 -227.961631 
L 207.399574 -229.134232 
L 209.683791 -230.306832 
L 211.818939 -231.479433 
L 214.48076 -232.652033 
L 218.167366 -233.824634 
L 222.797332 -234.997234 
L 227.712801 -236.169835 
L 232.138603 -237.342435 
L 235.635153 -238.515036 
L 238.177607 -239.687636 
L 239.99819 -240.860236 
L 241.409541 -242.032837 
L 242.660566 -243.205437 
L 243.861419 -244.378038 
L 245.004492 -245.550638 
L 246.037913 -246.723239 
L 246.9283 -247.895839 
L 247.67704 -249.06844 
L 248.308512 -250.24104 
L 248.8742 -251.413641 
L 249.454601 -252.586241 
L 250.106874 -253.758842 
L 250.796107 -254.931442 
L 251.409632 -256.104043 
L 251.854474 -257.276643 
L 252.127119 -258.449244 
L 252.290321 -259.621844 
L 252.40644 -260.794445 
L 252.502488 -261.967045 
L 252.579851 -263.139646 
L 252.634938 -264.312246 
L 252.668423 -265.484846 
L 252.685307 -266.657447 
L 252.704693 -266.657447 
L 252.704693 -266.657447 
L 252.721577 -265.484846 
L 252.755062 -264.312246 
L 252.810149 -263.139646 
L 252.887512 -261.967045 
L 252.98356 -260.794445 
L 253.099679 -259.621844 
L 253.262881 -258.449244 
L 253.535526 -257.276643 
L 253.980368 -256.104043 
L 254.593893 -254.931442 
L 255.283126 -253.758842 
L 255.935399 -252.586241 
L 256.5158 -251.413641 
L 257.081488 -250.24104 
L 257.71296 -249.06844 
L 258.4617 -247.895839 
L 259.352087 -246.723239 
L 260.385508 -245.550638 
L 261.528581 -244.378038 
L 262.729434 -243.205437 
L 263.980459 -242.032837 
L 265.39181 -240.860236 
L 267.212393 -239.687636 
L 269.754847 -238.515036 
L 273.251397 -237.342435 
L 277.677199 -236.169835 
L 282.592668 -234.997234 
L 287.222634 -233.824634 
L 290.90924 -232.652033 
L 293.571061 -231.479433 
L 295.706209 -230.306832 
L 297.990426 -229.134232 
L 300.738146 -227.961631 
L 303.448812 -226.789031 
L 304.867 -225.61643 
L 303.823726 -224.44383 
L 300.2643 -223.271229 
L 295.406572 -222.098629 
L 290.811905 -220.926028 
L 287.351597 -219.753428 
L 284.967199 -218.580827 
L 283.064603 -217.408227 
L 281.000239 -216.235627 
L 278.4487 -215.063026 
L 275.521186 -213.890426 
L 272.536071 -212.717825 
L 269.699913 -211.545225 
L 267.050277 -210.372624 
L 264.595699 -209.200024 
L 262.371712 -208.027423 
L 260.402911 -206.854823 
L 258.714725 -205.682222 
L 257.355762 -204.509622 
L 256.343942 -203.337021 
L 255.617707 -202.164421 
L 255.077651 -200.99182 
L 254.651172 -199.81922 
L 254.305044 -198.646619 
L 254.031723 -197.474019 
L 253.83641 -196.301418 
L 253.713529 -195.128818 
L 253.635874 -193.956218 
L 253.582501 -192.783617 
L 253.557532 -191.611017 
L 253.561669 -190.438416 
L 253.57674 -189.265816 
L 253.602078 -188.093215 
L 253.666008 -186.920615 
L 253.767871 -185.748014 
L 253.84256 -184.575414 
L 253.819451 -183.402813 
L 253.697391 -182.230213 
L 253.539398 -181.057612 
L 253.411703 -179.885012 
L 253.336774 -178.712411 
L 253.288416 -177.539811 
L 253.230175 -176.36721 
L 253.158333 -175.19461 
L 253.09386 -174.022009 
L 253.042264 -172.849409 
L 252.987681 -171.676809 
L 252.922867 -170.504208 
L 252.8619 -169.331608 
L 252.821418 -168.159007 
L 252.805484 -166.986407 
L 252.81109 -165.813806 
L 252.833539 -164.641206 
L 252.860339 -163.468605 
L 252.870864 -162.296005 
L 252.851977 -161.123404 
L 252.812133 -159.950804 
L 252.774732 -158.778203 
L 252.757069 -157.605603 
L 252.757059 -156.433002 
L 252.759179 -155.260402 
L 252.751098 -154.087801 
L 252.733562 -152.915201 
L 252.71546 -151.7426 
L 252.703342 -150.57 
z
" id="meaa0bd5c24" style="stroke:#3d3d3d;stroke-width:1.5;"/>
    </defs>
    <g clip-path="url(#p8a9ad51398)">
     <use style="fill:#e1812c;stroke:#3d3d3d;stroke-width:1.5;" x="0" xlink:href="#meaa0bd5c24" y="288"/>
    </g>
   </g>
   <g id="PolyCollection_3">
    <defs>
     <path d="M 383.537735 -207.606786 
L 382.712265 -207.606786 
L 382.556887 -207.97296 
L 382.353762 -208.339134 
L 382.091711 -208.705309 
L 381.757824 -209.071483 
L 381.337367 -209.437657 
L 380.813741 -209.803832 
L 380.168526 -210.170006 
L 379.381662 -210.536181 
L 378.431829 -210.902355 
L 377.297084 -211.268529 
L 375.955815 -211.634704 
L 374.388033 -212.000878 
L 372.577003 -212.367053 
L 370.511145 -212.733227 
L 368.186103 -213.099401 
L 365.6068 -213.465576 
L 362.789291 -213.83175 
L 359.76218 -214.197924 
L 356.56738 -214.564099 
L 353.260039 -214.930273 
L 349.907513 -215.296448 
L 346.587332 -215.662622 
L 343.38422 -216.028796 
L 340.386304 -216.394971 
L 337.680741 -216.761145 
L 335.349068 -217.12732 
L 333.462607 -217.493494 
L 332.07831 -217.859668 
L 331.235384 -218.225843 
L 330.953 -218.592017 
L 331.229308 -218.958191 
L 332.041857 -219.324366 
L 333.349397 -219.69054 
L 335.094895 -220.056715 
L 337.209473 -220.422889 
L 339.616893 -220.789063 
L 342.23818 -221.155238 
L 344.995945 -221.521412 
L 347.818087 -221.887587 
L 350.640606 -222.253761 
L 353.409429 -222.619935 
L 356.081227 -222.98611 
L 358.623373 -223.352284 
L 361.013209 -223.718459 
L 363.236867 -224.084633 
L 365.287866 -224.450807 
L 367.16567 -224.816982 
L 368.87435 -225.183156 
L 370.421414 -225.54933 
L 371.816818 -225.915505 
L 373.072146 -226.281679 
L 374.199909 -226.647854 
L 375.212921 -227.014028 
L 376.123726 -227.380202 
L 376.944077 -227.746377 
L 377.68446 -228.112551 
L 378.35372 -228.478726 
L 378.958793 -228.8449 
L 379.504592 -229.211074 
L 379.994046 -229.577249 
L 380.428282 -229.943423 
L 380.806941 -230.309597 
L 381.128575 -230.675772 
L 381.391101 -231.041946 
L 381.59226 -231.408121 
L 381.730072 -231.774295 
L 381.803249 -232.140469 
L 381.811575 -232.506644 
L 381.756241 -232.872818 
L 381.640128 -233.238993 
L 381.468029 -233.605167 
L 381.246788 -233.971341 
L 380.985338 -234.337516 
L 380.694598 -234.70369 
L 380.38721 -235.069864 
L 380.077108 -235.436039 
L 379.778915 -235.802213 
L 379.507214 -236.168388 
L 379.275721 -236.534562 
L 379.096453 -236.900736 
L 378.978946 -237.266911 
L 378.929629 -237.633085 
L 378.951394 -237.99926 
L 379.043434 -238.365434 
L 379.20136 -238.731608 
L 379.41759 -239.097783 
L 379.681972 -239.463957 
L 379.982579 -239.830131 
L 380.306597 -240.196306 
L 380.641219 -240.56248 
L 380.974457 -240.928655 
L 381.295816 -241.294829 
L 381.596769 -241.661003 
L 381.871024 -242.027178 
L 382.114578 -242.393352 
L 382.32558 -242.759527 
L 382.504057 -243.125701 
L 382.651545 -243.491875 
L 382.770672 -243.85805 
L 383.479328 -243.85805 
L 383.479328 -243.85805 
L 383.598455 -243.491875 
L 383.745943 -243.125701 
L 383.92442 -242.759527 
L 384.135422 -242.393352 
L 384.378976 -242.027178 
L 384.653231 -241.661003 
L 384.954184 -241.294829 
L 385.275543 -240.928655 
L 385.608781 -240.56248 
L 385.943403 -240.196306 
L 386.267421 -239.830131 
L 386.568028 -239.463957 
L 386.83241 -239.097783 
L 387.04864 -238.731608 
L 387.206566 -238.365434 
L 387.298606 -237.99926 
L 387.320371 -237.633085 
L 387.271054 -237.266911 
L 387.153547 -236.900736 
L 386.974279 -236.534562 
L 386.742786 -236.168388 
L 386.471085 -235.802213 
L 386.172892 -235.436039 
L 385.86279 -235.069864 
L 385.555402 -234.70369 
L 385.264662 -234.337516 
L 385.003212 -233.971341 
L 384.781971 -233.605167 
L 384.609872 -233.238993 
L 384.493759 -232.872818 
L 384.438425 -232.506644 
L 384.446751 -232.140469 
L 384.519928 -231.774295 
L 384.65774 -231.408121 
L 384.858899 -231.041946 
L 385.121425 -230.675772 
L 385.443059 -230.309597 
L 385.821718 -229.943423 
L 386.255954 -229.577249 
L 386.745408 -229.211074 
L 387.291207 -228.8449 
L 387.89628 -228.478726 
L 388.56554 -228.112551 
L 389.305923 -227.746377 
L 390.126274 -227.380202 
L 391.037079 -227.014028 
L 392.050091 -226.647854 
L 393.177854 -226.281679 
L 394.433182 -225.915505 
L 395.828586 -225.54933 
L 397.37565 -225.183156 
L 399.08433 -224.816982 
L 400.962134 -224.450807 
L 403.013133 -224.084633 
L 405.236791 -223.718459 
L 407.626627 -223.352284 
L 410.168773 -222.98611 
L 412.840571 -222.619935 
L 415.609394 -222.253761 
L 418.431913 -221.887587 
L 421.254055 -221.521412 
L 424.01182 -221.155238 
L 426.633107 -220.789063 
L 429.040527 -220.422889 
L 431.155105 -220.056715 
L 432.900603 -219.69054 
L 434.208143 -219.324366 
L 435.020692 -218.958191 
L 435.297 -218.592017 
L 435.014616 -218.225843 
L 434.17169 -217.859668 
L 432.787393 -217.493494 
L 430.900932 -217.12732 
L 428.569259 -216.761145 
L 425.863696 -216.394971 
L 422.86578 -216.028796 
L 419.662668 -215.662622 
L 416.342487 -215.296448 
L 412.989961 -214.930273 
L 409.68262 -214.564099 
L 406.48782 -214.197924 
L 403.460709 -213.83175 
L 400.6432 -213.465576 
L 398.063897 -213.099401 
L 395.738855 -212.733227 
L 393.672997 -212.367053 
L 391.861967 -212.000878 
L 390.294185 -211.634704 
L 388.952916 -211.268529 
L 387.818171 -210.902355 
L 386.868338 -210.536181 
L 386.081474 -210.170006 
L 385.436259 -209.803832 
L 384.912633 -209.437657 
L 384.492176 -209.071483 
L 384.158289 -208.705309 
L 383.896238 -208.339134 
L 383.693113 -207.97296 
L 383.537735 -207.606786 
z
" id="mf775e9b4b8" style="stroke:#3d3d3d;stroke-width:1.5;"/>
    </defs>
    <g clip-path="url(#p8a9ad51398)">
     <use style="fill:#3a923a;stroke:#3d3d3d;stroke-width:1.5;" x="0" xlink:href="#mf775e9b4b8" y="288"/>
    </g>
   </g>
   <g id="PolyCollection_4">
    <defs>
     <path d="M 513.635801 -197.533016 
L 513.474199 -197.533016 
L 513.433924 -198.176447 
L 513.379952 -198.819877 
L 513.310416 -199.463308 
L 513.224041 -200.106738 
L 513.120166 -200.750169 
L 512.998509 -201.393599 
L 512.858669 -202.03703 
L 512.699415 -202.68046 
L 512.517907 -203.323891 
L 512.308997 -203.967321 
L 512.064739 -204.610752 
L 511.774138 -205.254182 
L 511.423051 -205.897613 
L 510.994118 -206.541043 
L 510.466596 -207.184474 
L 509.816097 -207.827904 
L 509.014446 -208.471335 
L 508.030004 -209.114765 
L 506.828911 -209.758196 
L 505.377573 -210.401626 
L 503.646433 -211.045057 
L 501.614598 -211.688487 
L 499.274505 -212.331918 
L 496.635564 -212.975348 
L 493.725796 -213.618779 
L 490.590956 -214.262209 
L 487.291292 -214.90564 
L 483.896819 -215.54907 
L 480.482407 -216.192501 
L 477.124012 -216.835931 
L 473.896913 -217.479362 
L 470.876022 -218.122792 
L 468.13746 -218.766223 
L 465.759887 -219.409653 
L 463.823836 -220.053084 
L 462.407569 -220.696514 
L 461.578821 -221.339945 
L 461.383 -221.983375 
L 461.829732 -222.626806 
L 462.880733 -223.270236 
L 464.442418 -223.913667 
L 466.366244 -224.557097 
L 468.45846 -225.200528 
L 470.498942 -225.843958 
L 472.266642 -226.487389 
L 473.567478 -227.130819 
L 474.259821 -227.77425 
L 474.273196 -228.41768 
L 473.617389 -229.061111 
L 472.381181 -229.704541 
L 470.721849 -230.347972 
L 468.847771 -230.991402 
L 466.996862 -231.634833 
L 465.413206 -232.278263 
L 464.323732 -232.921694 
L 463.916405 -233.565124 
L 464.321476 -234.208555 
L 465.597644 -234.851985 
L 467.725214 -235.495416 
L 470.607998 -236.138846 
L 474.084683 -236.782277 
L 477.948682 -237.425707 
L 481.973697 -238.069138 
L 485.940776 -238.712568 
L 489.662252 -239.355999 
L 492.998658 -239.999429 
L 495.866423 -240.64286 
L 498.236307 -241.28629 
L 500.124487 -241.929721 
L 501.579382 -242.573151 
L 502.6675 -243.216582 
L 503.460921 -243.860012 
L 504.027931 -244.503443 
L 504.427187 -245.146873 
L 504.705062 -245.790304 
L 504.895519 -246.433734 
L 505.021872 -247.077165 
L 505.099899 -247.720595 
L 505.141774 -248.364026 
L 505.160147 -249.007456 
L 505.1715 -249.650887 
L 505.197905 -250.294317 
L 505.266546 -250.937748 
L 505.406896 -251.581178 
L 505.646119 -252.224609 
L 506.003814 -252.868039 
L 506.487503 -253.51147 
L 507.090081 -254.1549 
L 507.789964 -254.798331 
L 508.553954 -255.441762 
L 509.342142 -256.085192 
L 510.113742 -256.728623 
L 510.832596 -257.372053 
L 511.471306 -258.015484 
L 512.013387 -258.658914 
L 512.45336 -259.302345 
L 512.795146 -259.945775 
L 513.049429 -260.589206 
L 513.230691 -261.232636 
L 513.879309 -261.232636 
L 513.879309 -261.232636 
L 514.060571 -260.589206 
L 514.314854 -259.945775 
L 514.65664 -259.302345 
L 515.096613 -258.658914 
L 515.638694 -258.015484 
L 516.277404 -257.372053 
L 516.996258 -256.728623 
L 517.767858 -256.085192 
L 518.556046 -255.441762 
L 519.320036 -254.798331 
L 520.019919 -254.1549 
L 520.622497 -253.51147 
L 521.106186 -252.868039 
L 521.463881 -252.224609 
L 521.703104 -251.581178 
L 521.843454 -250.937748 
L 521.912095 -250.294317 
L 521.9385 -249.650887 
L 521.949853 -249.007456 
L 521.968226 -248.364026 
L 522.010101 -247.720595 
L 522.088128 -247.077165 
L 522.214481 -246.433734 
L 522.404938 -245.790304 
L 522.682813 -245.146873 
L 523.082069 -244.503443 
L 523.649079 -243.860012 
L 524.4425 -243.216582 
L 525.530618 -242.573151 
L 526.985513 -241.929721 
L 528.873693 -241.28629 
L 531.243577 -240.64286 
L 534.111342 -239.999429 
L 537.447748 -239.355999 
L 541.169224 -238.712568 
L 545.136303 -238.069138 
L 549.161318 -237.425707 
L 553.025317 -236.782277 
L 556.502002 -236.138846 
L 559.384786 -235.495416 
L 561.512356 -234.851985 
L 562.788524 -234.208555 
L 563.193595 -233.565124 
L 562.786268 -232.921694 
L 561.696794 -232.278263 
L 560.113138 -231.634833 
L 558.262229 -230.991402 
L 556.388151 -230.347972 
L 554.728819 -229.704541 
L 553.492611 -229.061111 
L 552.836804 -228.41768 
L 552.850179 -227.77425 
L 553.542522 -227.130819 
L 554.843358 -226.487389 
L 556.611058 -225.843958 
L 558.65154 -225.200528 
L 560.743756 -224.557097 
L 562.667582 -223.913667 
L 564.229267 -223.270236 
L 565.280268 -222.626806 
L 565.727 -221.983375 
L 565.531179 -221.339945 
L 564.702431 -220.696514 
L 563.286164 -220.053084 
L 561.350113 -219.409653 
L 558.97254 -218.766223 
L 556.233978 -218.122792 
L 553.213087 -217.479362 
L 549.985988 -216.835931 
L 546.627593 -216.192501 
L 543.213181 -215.54907 
L 539.818708 -214.90564 
L 536.519044 -214.262209 
L 533.384204 -213.618779 
L 530.474436 -212.975348 
L 527.835495 -212.331918 
L 525.495402 -211.688487 
L 523.463567 -211.045057 
L 521.732427 -210.401626 
L 520.281089 -209.758196 
L 519.079996 -209.114765 
L 518.095554 -208.471335 
L 517.293903 -207.827904 
L 516.643404 -207.184474 
L 516.115882 -206.541043 
L 515.686949 -205.897613 
L 515.335862 -205.254182 
L 515.045261 -204.610752 
L 514.801003 -203.967321 
L 514.592093 -203.323891 
L 514.410585 -202.68046 
L 514.251331 -202.03703 
L 514.111491 -201.393599 
L 513.989834 -200.750169 
L 513.885959 -200.106738 
L 513.799584 -199.463308 
L 513.730048 -198.819877 
L 513.676076 -198.176447 
L 513.635801 -197.533016 
z
" id="mb86652c19e" style="stroke:#3d3d3d;stroke-width:1.5;"/>
    </defs>
    <g clip-path="url(#p8a9ad51398)">
     <use style="fill:#c03d3e;stroke:#3d3d3d;stroke-width:1.5;" x="0" xlink:href="#mb86652c19e" y="288"/>
    </g>
   </g>
   <g id="PolyCollection_5">
    <defs>
     <path d="M 647.338497 -217.841401 
L 640.631503 -217.841401 
L 640.193204 -217.902705 
L 639.713945 -217.964008 
L 639.192394 -218.025311 
L 638.627546 -218.086614 
L 638.018776 -218.147917 
L 637.365882 -218.20922 
L 636.669135 -218.270523 
L 635.929313 -218.331826 
L 635.147728 -218.393129 
L 634.326252 -218.454433 
L 633.467322 -218.515736 
L 632.573937 -218.577039 
L 631.649643 -218.638342 
L 630.698499 -218.699645 
L 629.725031 -218.760948 
L 628.734174 -218.822251 
L 627.731188 -218.883554 
L 626.721576 -218.944858 
L 625.710973 -219.006161 
L 624.705037 -219.067464 
L 623.709328 -219.128767 
L 622.729174 -219.19007 
L 621.76955 -219.251373 
L 620.83494 -219.312676 
L 619.929225 -219.373979 
L 619.055557 -219.435282 
L 618.21627 -219.496586 
L 617.412787 -219.557889 
L 616.645564 -219.619192 
L 615.914045 -219.680495 
L 615.216656 -219.741798 
L 614.550813 -219.803101 
L 613.912977 -219.864404 
L 613.298721 -219.925707 
L 612.702841 -219.987011 
L 612.119488 -220.048314 
L 611.542329 -220.109617 
L 610.964726 -220.17092 
L 610.379941 -220.232223 
L 609.781347 -220.293526 
L 609.162649 -220.354829 
L 608.518112 -220.416132 
L 607.842778 -220.477435 
L 607.13267 -220.538739 
L 606.384992 -220.600042 
L 605.598286 -220.661345 
L 604.772576 -220.722648 
L 603.909469 -220.783951 
L 603.01222 -220.845254 
L 602.085753 -220.906557 
L 601.136644 -220.96786 
L 600.173051 -221.029164 
L 599.204609 -221.090467 
L 598.242276 -221.15177 
L 597.298144 -221.213073 
L 596.385212 -221.274376 
L 595.517135 -221.335679 
L 594.707942 -221.396982 
L 593.971746 -221.458285 
L 593.322441 -221.519588 
L 592.773398 -221.580892 
L 592.337173 -221.642195 
L 592.025224 -221.703498 
L 591.847659 -221.764801 
L 591.813 -221.826104 
L 591.927998 -221.887407 
L 592.197475 -221.94871 
L 592.624216 -222.010013 
L 593.208907 -222.071317 
L 593.950113 -222.13262 
L 594.844313 -222.193923 
L 595.885972 -222.255226 
L 597.067657 -222.316529 
L 598.380191 -222.377832 
L 599.812843 -222.439135 
L 601.353542 -222.500438 
L 602.989114 -222.561741 
L 604.705535 -222.623045 
L 606.488188 -222.684348 
L 608.322129 -222.745651 
L 610.192339 -222.806954 
L 612.083974 -222.868257 
L 613.982592 -222.92956 
L 615.874367 -222.990863 
L 617.746269 -223.052166 
L 619.586225 -223.11347 
L 621.383251 -223.174773 
L 623.127545 -223.236076 
L 624.810561 -223.297379 
L 626.42505 -223.358682 
L 627.965065 -223.419985 
L 629.425952 -223.481288 
L 630.804313 -223.542591 
L 632.097942 -223.603894 
L 633.305756 -223.665198 
L 634.4277 -223.726501 
L 635.464651 -223.787804 
L 636.418308 -223.849107 
L 637.291081 -223.91041 
L 650.678919 -223.91041 
L 650.678919 -223.91041 
L 651.551692 -223.849107 
L 652.505349 -223.787804 
L 653.5423 -223.726501 
L 654.664244 -223.665198 
L 655.872058 -223.603894 
L 657.165687 -223.542591 
L 658.544048 -223.481288 
L 660.004935 -223.419985 
L 661.54495 -223.358682 
L 663.159439 -223.297379 
L 664.842455 -223.236076 
L 666.586749 -223.174773 
L 668.383775 -223.11347 
L 670.223731 -223.052166 
L 672.095633 -222.990863 
L 673.987408 -222.92956 
L 675.886026 -222.868257 
L 677.777661 -222.806954 
L 679.647871 -222.745651 
L 681.481812 -222.684348 
L 683.264465 -222.623045 
L 684.980886 -222.561741 
L 686.616458 -222.500438 
L 688.157157 -222.439135 
L 689.589809 -222.377832 
L 690.902343 -222.316529 
L 692.084028 -222.255226 
L 693.125687 -222.193923 
L 694.019887 -222.13262 
L 694.761093 -222.071317 
L 695.345784 -222.010013 
L 695.772525 -221.94871 
L 696.042002 -221.887407 
L 696.157 -221.826104 
L 696.122341 -221.764801 
L 695.944776 -221.703498 
L 695.632827 -221.642195 
L 695.196602 -221.580892 
L 694.647559 -221.519588 
L 693.998254 -221.458285 
L 693.262058 -221.396982 
L 692.452865 -221.335679 
L 691.584788 -221.274376 
L 690.671856 -221.213073 
L 689.727724 -221.15177 
L 688.765391 -221.090467 
L 687.796949 -221.029164 
L 686.833356 -220.96786 
L 685.884247 -220.906557 
L 684.95778 -220.845254 
L 684.060531 -220.783951 
L 683.197424 -220.722648 
L 682.371714 -220.661345 
L 681.585008 -220.600042 
L 680.83733 -220.538739 
L 680.127222 -220.477435 
L 679.451888 -220.416132 
L 678.807351 -220.354829 
L 678.188653 -220.293526 
L 677.590059 -220.232223 
L 677.005274 -220.17092 
L 676.427671 -220.109617 
L 675.850512 -220.048314 
L 675.267159 -219.987011 
L 674.671279 -219.925707 
L 674.057023 -219.864404 
L 673.419187 -219.803101 
L 672.753344 -219.741798 
L 672.055955 -219.680495 
L 671.324436 -219.619192 
L 670.557213 -219.557889 
L 669.75373 -219.496586 
L 668.914443 -219.435282 
L 668.040775 -219.373979 
L 667.13506 -219.312676 
L 666.20045 -219.251373 
L 665.240826 -219.19007 
L 664.260672 -219.128767 
L 663.264963 -219.067464 
L 662.259027 -219.006161 
L 661.248424 -218.944858 
L 660.238812 -218.883554 
L 659.235826 -218.822251 
L 658.244969 -218.760948 
L 657.271501 -218.699645 
L 656.320357 -218.638342 
L 655.396063 -218.577039 
L 654.502678 -218.515736 
L 653.643748 -218.454433 
L 652.822272 -218.393129 
L 652.040687 -218.331826 
L 651.300865 -218.270523 
L 650.604118 -218.20922 
L 649.951224 -218.147917 
L 649.342454 -218.086614 
L 648.777606 -218.025311 
L 648.256055 -217.964008 
L 647.776796 -217.902705 
L 647.338497 -217.841401 
z
" id="m9a386c9c4a" style="stroke:#3d3d3d;stroke-width:1.5;"/>
    </defs>
    <g clip-path="url(#p8a9ad51398)">
     <use style="fill:#9372b2;stroke:#3d3d3d;stroke-width:1.5;" x="0" xlink:href="#m9a386c9c4a" y="288"/>
    </g>
   </g>
   <g id="matplotlib.axis_1">
    <g id="xtick_1">
     <g id="line2d_1">
      <defs>
       <path d="M 0 0 
L 0 3.5 
" id="md7b0404412" style="stroke:#000000;stroke-width:0.8;"/>
      </defs>
      <g>
       <use style="stroke:#000000;stroke-width:0.8;" x="122.265" xlink:href="#md7b0404412" y="143.46"/>
      </g>
     </g>
    </g>
    <g id="xtick_2">
     <g id="line2d_2">
      <g>
       <use style="stroke:#000000;stroke-width:0.8;" x="252.695" xlink:href="#md7b0404412" y="143.46"/>
      </g>
     </g>
    </g>
    <g id="xtick_3">
     <g id="line2d_3">
      <g>
       <use style="stroke:#000000;stroke-width:0.8;" x="383.125" xlink:href="#md7b0404412" y="143.46"/>
      </g>
     </g>
    </g>
    <g id="xtick_4">
     <g id="line2d_4">
      <g>
       <use style="stroke:#000000;stroke-width:0.8;" x="513.555" xlink:href="#md7b0404412" y="143.46"/>
      </g>
     </g>
    </g>
    <g id="xtick_5">
     <g id="line2d_5">
      <g>
       <use style="stroke:#000000;stroke-width:0.8;" x="643.985" xlink:href="#md7b0404412" y="143.46"/>
      </g>
     </g>
    </g>
   </g>
   <g id="matplotlib.axis_2">
    <g id="ytick_1">
     <g id="line2d_6">
      <defs>
       <path d="M 0 0 
L -3.5 0 
" id="ma09051a799" style="stroke:#000000;stroke-width:0.8;"/>
      </defs>
      <g>
       <use style="stroke:#000000;stroke-width:0.8;" x="57.05" xlink:href="#ma09051a799" y="137.282513"/>
      </g>
     </g>
     <g id="text_1">
      <!-- 3.0 -->
      <g transform="translate(34.146875 141.081731)scale(0.1 -0.1)">
       <defs>
        <path d="M 2597 2516 
Q 3050 2419 3304 2112 
Q 3559 1806 3559 1356 
Q 3559 666 3084 287 
Q 2609 -91 1734 -91 
Q 1441 -91 1130 -33 
Q 819 25 488 141 
L 488 750 
Q 750 597 1062 519 
Q 1375 441 1716 441 
Q 2309 441 2620 675 
Q 2931 909 2931 1356 
Q 2931 1769 2642 2001 
Q 2353 2234 1838 2234 
L 1294 2234 
L 1294 2753 
L 1863 2753 
Q 2328 2753 2575 2939 
Q 2822 3125 2822 3475 
Q 2822 3834 2567 4026 
Q 2313 4219 1838 4219 
Q 1578 4219 1281 4162 
Q 984 4106 628 3988 
L 628 4550 
Q 988 4650 1302 4700 
Q 1616 4750 1894 4750 
Q 2613 4750 3031 4423 
Q 3450 4097 3450 3541 
Q 3450 3153 3228 2886 
Q 3006 2619 2597 2516 
z
" id="DejaVuSans-33" transform="scale(0.015625)"/>
        <path d="M 684 794 
L 1344 794 
L 1344 0 
L 684 0 
L 684 794 
z
" id="DejaVuSans-2e" transform="scale(0.015625)"/>
        <path d="M 2034 4250 
Q 1547 4250 1301 3770 
Q 1056 3291 1056 2328 
Q 1056 1369 1301 889 
Q 1547 409 2034 409 
Q 2525 409 2770 889 
Q 3016 1369 3016 2328 
Q 3016 3291 2770 3770 
Q 2525 4250 2034 4250 
z
M 2034 4750 
Q 2819 4750 3233 4129 
Q 3647 3509 3647 2328 
Q 3647 1150 3233 529 
Q 2819 -91 2034 -91 
Q 1250 -91 836 529 
Q 422 1150 422 2328 
Q 422 3509 836 4129 
Q 1250 4750 2034 4750 
z
" id="DejaVuSans-30" transform="scale(0.015625)"/>
       </defs>
       <use xlink:href="#DejaVuSans-33"/>
       <use x="63.623047" xlink:href="#DejaVuSans-2e"/>
       <use x="95.410156" xlink:href="#DejaVuSans-30"/>
      </g>
     </g>
    </g>
    <g id="ytick_2">
     <g id="line2d_7">
      <g>
       <use style="stroke:#000000;stroke-width:0.8;" x="57.05" xlink:href="#ma09051a799" y="109.433914"/>
      </g>
     </g>
     <g id="text_2">
      <!-- 3.5 -->
      <g transform="translate(34.146875 113.233132)scale(0.1 -0.1)">
       <defs>
        <path d="M 691 4666 
L 3169 4666 
L 3169 4134 
L 1269 4134 
L 1269 2991 
Q 1406 3038 1543 3061 
Q 1681 3084 1819 3084 
Q 2600 3084 3056 2656 
Q 3513 2228 3513 1497 
Q 3513 744 3044 326 
Q 2575 -91 1722 -91 
Q 1428 -91 1123 -41 
Q 819 9 494 109 
L 494 744 
Q 775 591 1075 516 
Q 1375 441 1709 441 
Q 2250 441 2565 725 
Q 2881 1009 2881 1497 
Q 2881 1984 2565 2268 
Q 2250 2553 1709 2553 
Q 1456 2553 1204 2497 
Q 953 2441 691 2322 
L 691 4666 
z
" id="DejaVuSans-35" transform="scale(0.015625)"/>
       </defs>
       <use xlink:href="#DejaVuSans-33"/>
       <use x="63.623047" xlink:href="#DejaVuSans-2e"/>
       <use x="95.410156" xlink:href="#DejaVuSans-35"/>
      </g>
     </g>
    </g>
    <g id="ytick_3">
     <g id="line2d_8">
      <g>
       <use style="stroke:#000000;stroke-width:0.8;" x="57.05" xlink:href="#ma09051a799" y="81.585315"/>
      </g>
     </g>
     <g id="text_3">
      <!-- 4.0 -->
      <g transform="translate(34.146875 85.384533)scale(0.1 -0.1)">
       <defs>
        <path d="M 2419 4116 
L 825 1625 
L 2419 1625 
L 2419 4116 
z
M 2253 4666 
L 3047 4666 
L 3047 1625 
L 3713 1625 
L 3713 1100 
L 3047 1100 
L 3047 0 
L 2419 0 
L 2419 1100 
L 313 1100 
L 313 1709 
L 2253 4666 
z
" id="DejaVuSans-34" transform="scale(0.015625)"/>
       </defs>
       <use xlink:href="#DejaVuSans-34"/>
       <use x="63.623047" xlink:href="#DejaVuSans-2e"/>
       <use x="95.410156" xlink:href="#DejaVuSans-30"/>
      </g>
     </g>
    </g>
    <g id="ytick_4">
     <g id="line2d_9">
      <g>
       <use style="stroke:#000000;stroke-width:0.8;" x="57.05" xlink:href="#ma09051a799" y="53.736715"/>
      </g>
     </g>
     <g id="text_4">
      <!-- 4.5 -->
      <g transform="translate(34.146875 57.535934)scale(0.1 -0.1)">
       <use xlink:href="#DejaVuSans-34"/>
       <use x="63.623047" xlink:href="#DejaVuSans-2e"/>
       <use x="95.410156" xlink:href="#DejaVuSans-35"/>
      </g>
     </g>
    </g>
    <g id="ytick_5">
     <g id="line2d_10">
      <g>
       <use style="stroke:#000000;stroke-width:0.8;" x="57.05" xlink:href="#ma09051a799" y="25.888116"/>
      </g>
     </g>
     <g id="text_5">
      <!-- 5.0 -->
      <g transform="translate(34.146875 29.687335)scale(0.1 -0.1)">
       <use xlink:href="#DejaVuSans-35"/>
       <use x="63.623047" xlink:href="#DejaVuSans-2e"/>
       <use x="95.410156" xlink:href="#DejaVuSans-30"/>
      </g>
     </g>
    </g>
    <g id="text_6">
     <!-- log price -->
     <g transform="translate(28.067187 98.78625)rotate(-90)scale(0.1 -0.1)">
      <defs>
       <path d="M 603 4863 
L 1178 4863 
L 1178 0 
L 603 0 
L 603 4863 
z
" id="DejaVuSans-6c" transform="scale(0.015625)"/>
       <path d="M 1959 3097 
Q 1497 3097 1228 2736 
Q 959 2375 959 1747 
Q 959 1119 1226 758 
Q 1494 397 1959 397 
Q 2419 397 2687 759 
Q 2956 1122 2956 1747 
Q 2956 2369 2687 2733 
Q 2419 3097 1959 3097 
z
M 1959 3584 
Q 2709 3584 3137 3096 
Q 3566 2609 3566 1747 
Q 3566 888 3137 398 
Q 2709 -91 1959 -91 
Q 1206 -91 779 398 
Q 353 888 353 1747 
Q 353 2609 779 3096 
Q 1206 3584 1959 3584 
z
" id="DejaVuSans-6f" transform="scale(0.015625)"/>
       <path d="M 2906 1791 
Q 2906 2416 2648 2759 
Q 2391 3103 1925 3103 
Q 1463 3103 1205 2759 
Q 947 2416 947 1791 
Q 947 1169 1205 825 
Q 1463 481 1925 481 
Q 2391 481 2648 825 
Q 2906 1169 2906 1791 
z
M 3481 434 
Q 3481 -459 3084 -895 
Q 2688 -1331 1869 -1331 
Q 1566 -1331 1297 -1286 
Q 1028 -1241 775 -1147 
L 775 -588 
Q 1028 -725 1275 -790 
Q 1522 -856 1778 -856 
Q 2344 -856 2625 -561 
Q 2906 -266 2906 331 
L 2906 616 
Q 2728 306 2450 153 
Q 2172 0 1784 0 
Q 1141 0 747 490 
Q 353 981 353 1791 
Q 353 2603 747 3093 
Q 1141 3584 1784 3584 
Q 2172 3584 2450 3431 
Q 2728 3278 2906 2969 
L 2906 3500 
L 3481 3500 
L 3481 434 
z
" id="DejaVuSans-67" transform="scale(0.015625)"/>
       <path id="DejaVuSans-20" transform="scale(0.015625)"/>
       <path d="M 1159 525 
L 1159 -1331 
L 581 -1331 
L 581 3500 
L 1159 3500 
L 1159 2969 
Q 1341 3281 1617 3432 
Q 1894 3584 2278 3584 
Q 2916 3584 3314 3078 
Q 3713 2572 3713 1747 
Q 3713 922 3314 415 
Q 2916 -91 2278 -91 
Q 1894 -91 1617 61 
Q 1341 213 1159 525 
z
M 3116 1747 
Q 3116 2381 2855 2742 
Q 2594 3103 2138 3103 
Q 1681 3103 1420 2742 
Q 1159 2381 1159 1747 
Q 1159 1113 1420 752 
Q 1681 391 2138 391 
Q 2594 391 2855 752 
Q 3116 1113 3116 1747 
z
" id="DejaVuSans-70" transform="scale(0.015625)"/>
       <path d="M 2631 2963 
Q 2534 3019 2420 3045 
Q 2306 3072 2169 3072 
Q 1681 3072 1420 2755 
Q 1159 2438 1159 1844 
L 1159 0 
L 581 0 
L 581 3500 
L 1159 3500 
L 1159 2956 
Q 1341 3275 1631 3429 
Q 1922 3584 2338 3584 
Q 2397 3584 2469 3576 
Q 2541 3569 2628 3553 
L 2631 2963 
z
" id="DejaVuSans-72" transform="scale(0.015625)"/>
       <path d="M 603 3500 
L 1178 3500 
L 1178 0 
L 603 0 
L 603 3500 
z
M 603 4863 
L 1178 4863 
L 1178 4134 
L 603 4134 
L 603 4863 
z
" id="DejaVuSans-69" transform="scale(0.015625)"/>
       <path d="M 3122 3366 
L 3122 2828 
Q 2878 2963 2633 3030 
Q 2388 3097 2138 3097 
Q 1578 3097 1268 2742 
Q 959 2388 959 1747 
Q 959 1106 1268 751 
Q 1578 397 2138 397 
Q 2388 397 2633 464 
Q 2878 531 3122 666 
L 3122 134 
Q 2881 22 2623 -34 
Q 2366 -91 2075 -91 
Q 1284 -91 818 406 
Q 353 903 353 1747 
Q 353 2603 823 3093 
Q 1294 3584 2113 3584 
Q 2378 3584 2631 3529 
Q 2884 3475 3122 3366 
z
" id="DejaVuSans-63" transform="scale(0.015625)"/>
       <path d="M 3597 1894 
L 3597 1613 
L 953 1613 
Q 991 1019 1311 708 
Q 1631 397 2203 397 
Q 2534 397 2845 478 
Q 3156 559 3463 722 
L 3463 178 
Q 3153 47 2828 -22 
Q 2503 -91 2169 -91 
Q 1331 -91 842 396 
Q 353 884 353 1716 
Q 353 2575 817 3079 
Q 1281 3584 2069 3584 
Q 2775 3584 3186 3129 
Q 3597 2675 3597 1894 
z
M 3022 2063 
Q 3016 2534 2758 2815 
Q 2500 3097 2075 3097 
Q 1594 3097 1305 2825 
Q 1016 2553 972 2059 
L 3022 2063 
z
" id="DejaVuSans-65" transform="scale(0.015625)"/>
      </defs>
      <use xlink:href="#DejaVuSans-6c"/>
      <use x="27.783203" xlink:href="#DejaVuSans-6f"/>
      <use x="88.964844" xlink:href="#DejaVuSans-67"/>
      <use x="152.441406" xlink:href="#DejaVuSans-20"/>
      <use x="184.228516" xlink:href="#DejaVuSans-70"/>
      <use x="247.705078" xlink:href="#DejaVuSans-72"/>
      <use x="288.818359" xlink:href="#DejaVuSans-69"/>
      <use x="316.601562" xlink:href="#DejaVuSans-63"/>
      <use x="371.582031" xlink:href="#DejaVuSans-65"/>
     </g>
    </g>
   </g>
   <g id="line2d_11">
    <path clip-path="url(#p8a9ad51398)" d="M 122.265 96.965207 
L 122.265 33.834297 
" style="fill:none;stroke:#3d3d3d;stroke-linecap:square;stroke-width:1.5;"/>
   </g>
   <g id="line2d_12">
    <path clip-path="url(#p8a9ad51398)" d="M 122.265 73.463676 
L 122.265 57.577486 
" style="fill:none;stroke:#3d3d3d;stroke-linecap:square;stroke-width:4.5;"/>
   </g>
   <g id="line2d_13">
    <path clip-path="url(#p8a9ad51398)" d="M 252.695 87.013186 
L 252.695 36.393315 
" style="fill:none;stroke:#3d3d3d;stroke-linecap:square;stroke-width:1.5;"/>
   </g>
   <g id="line2d_14">
    <path clip-path="url(#p8a9ad51398)" d="M 252.695 68.821204 
L 252.695 55.831042 
" style="fill:none;stroke:#3d3d3d;stroke-linecap:square;stroke-width:4.5;"/>
   </g>
   <g id="line2d_15">
    <path clip-path="url(#p8a9ad51398)" d="M 383.125 75.238989 
L 383.125 62.579391 
" style="fill:none;stroke:#3d3d3d;stroke-linecap:square;stroke-width:1.5;"/>
   </g>
   <g id="line2d_16">
    <path clip-path="url(#p8a9ad51398)" d="M 383.125 70.524088 
L 383.125 66.644841 
" style="fill:none;stroke:#3d3d3d;stroke-linecap:square;stroke-width:4.5;"/>
   </g>
   <g id="line2d_17">
    <path clip-path="url(#p8a9ad51398)" d="M 513.555 84.136566 
L 513.555 33.50065 
" style="fill:none;stroke:#3d3d3d;stroke-linecap:square;stroke-width:1.5;"/>
   </g>
   <g id="line2d_18">
    <path clip-path="url(#p8a9ad51398)" d="M 513.555 66.968846 
L 513.555 53.450065 
" style="fill:none;stroke:#3d3d3d;stroke-linecap:square;stroke-width:4.5;"/>
   </g>
   <g id="line2d_19">
    <path clip-path="url(#p8a9ad51398)" d="M 643.985 68.187395 
L 643.985 66.060793 
" style="fill:none;stroke:#3d3d3d;stroke-linecap:square;stroke-width:1.5;"/>
   </g>
   <g id="line2d_20">
    <path clip-path="url(#p8a9ad51398)" d="M 643.985 67.124094 
L 643.985 66.060793 
" style="fill:none;stroke:#3d3d3d;stroke-linecap:square;stroke-width:4.5;"/>
   </g>
   <g id="patch_3">
    <path d="M 57.05 143.46 
L 57.05 10.8 
" style="fill:none;stroke:#000000;stroke-linecap:square;stroke-linejoin:miter;stroke-width:0.8;"/>
   </g>
   <g id="patch_4">
    <path d="M 709.2 143.46 
L 709.2 10.8 
" style="fill:none;stroke:#000000;stroke-linecap:square;stroke-linejoin:miter;stroke-width:0.8;"/>
   </g>
   <g id="patch_5">
    <path d="M 57.05 143.46 
L 709.2 143.46 
" style="fill:none;stroke:#000000;stroke-linecap:square;stroke-linejoin:miter;stroke-width:0.8;"/>
   </g>
   <g id="patch_6">
    <path d="M 57.05 10.8 
L 709.2 10.8 
" style="fill:none;stroke:#000000;stroke-linecap:square;stroke-linejoin:miter;stroke-width:0.8;"/>
   </g>
   <g id="PathCollection_1">
    <defs>
     <path d="M 0 1.5 
C 0.397805 1.5 0.77937 1.341951 1.06066 1.06066 
C 1.341951 0.77937 1.5 0.397805 1.5 0 
C 1.5 -0.397805 1.341951 -0.77937 1.06066 -1.06066 
C 0.77937 -1.341951 0.397805 -1.5 0 -1.5 
C -0.397805 -1.5 -0.77937 -1.341951 -1.06066 -1.06066 
C -1.341951 -0.77937 -1.5 -0.397805 -1.5 0 
C -1.5 0.397805 -1.341951 0.77937 -1.06066 1.06066 
C -0.77937 1.341951 -0.397805 1.5 0 1.5 
z
" id="m0ddf77719d" style="stroke:#3d3d3d;"/>
    </defs>
    <g clip-path="url(#p8a9ad51398)">
     <use style="fill:#ffffff;stroke:#3d3d3d;" x="122.265" xlink:href="#m0ddf77719d" y="66.05952"/>
    </g>
   </g>
   <g id="PathCollection_2">
    <g clip-path="url(#p8a9ad51398)">
     <use style="fill:#ffffff;stroke:#3d3d3d;" x="252.695" xlink:href="#m0ddf77719d" y="62.51443"/>
    </g>
   </g>
   <g id="PathCollection_3">
    <g clip-path="url(#p8a9ad51398)">
     <use style="fill:#ffffff;stroke:#3d3d3d;" x="383.125" xlink:href="#m0ddf77719d" y="68.932747"/>
    </g>
   </g>
   <g id="PathCollection_4">
    <g clip-path="url(#p8a9ad51398)">
     <use style="fill:#ffffff;stroke:#3d3d3d;" x="513.555" xlink:href="#m0ddf77719d" y="60.595374"/>
    </g>
   </g>
   <g id="PathCollection_5">
    <g clip-path="url(#p8a9ad51398)">
     <use style="fill:#ffffff;stroke:#3d3d3d;" x="643.985" xlink:href="#m0ddf77719d" y="66.060793"/>
    </g>
   </g>
  </g>
  <g id="axes_2">
   <g id="patch_7">
    <path d="M 57.05 246.2 
L 709.2 246.2 
L 709.2 157.76 
L 57.05 157.76 
z
" style="fill:#ffffff;"/>
   </g>
   <g id="patch_8">
    <path clip-path="url(#p1536ed3a87)" d="M 70.093 246.2 
L 174.437 246.2 
L 174.437 161.971429 
L 70.093 161.971429 
z
" style="fill:#3274a1;"/>
   </g>
   <g id="patch_9">
    <path clip-path="url(#p1536ed3a87)" d="M 200.523 246.2 
L 304.867 246.2 
L 304.867 205.242404 
L 200.523 205.242404 
z
" style="fill:#e1812c;"/>
   </g>
   <g id="patch_10">
    <path clip-path="url(#p1536ed3a87)" d="M 330.953 246.2 
L 435.297 246.2 
L 435.297 245.768489 
L 330.953 245.768489 
z
" style="fill:#3a923a;"/>
   </g>
   <g id="patch_11">
    <path clip-path="url(#p1536ed3a87)" d="M 461.383 246.2 
L 565.727 246.2 
L 565.727 242.628047 
L 461.383 242.628047 
z
" style="fill:#c03d3e;"/>
   </g>
   <g id="patch_12">
    <path clip-path="url(#p1536ed3a87)" d="M 591.813 246.2 
L 696.157 246.2 
L 696.157 246.164041 
L 591.813 246.164041 
z
" style="fill:#9372b2;"/>
   </g>
   <g id="matplotlib.axis_3">
    <g id="xtick_6">
     <g id="line2d_21">
      <g>
       <use style="stroke:#000000;stroke-width:0.8;" x="122.265" xlink:href="#md7b0404412" y="246.2"/>
      </g>
     </g>
     <g id="text_7">
      <!-- Diesel -->
      <g transform="translate(106.879063 260.798437)scale(0.1 -0.1)">
       <defs>
        <path d="M 1259 4147 
L 1259 519 
L 2022 519 
Q 2988 519 3436 956 
Q 3884 1394 3884 2338 
Q 3884 3275 3436 3711 
Q 2988 4147 2022 4147 
L 1259 4147 
z
M 628 4666 
L 1925 4666 
Q 3281 4666 3915 4102 
Q 4550 3538 4550 2338 
Q 4550 1131 3912 565 
Q 3275 0 1925 0 
L 628 0 
L 628 4666 
z
" id="DejaVuSans-44" transform="scale(0.015625)"/>
        <path d="M 2834 3397 
L 2834 2853 
Q 2591 2978 2328 3040 
Q 2066 3103 1784 3103 
Q 1356 3103 1142 2972 
Q 928 2841 928 2578 
Q 928 2378 1081 2264 
Q 1234 2150 1697 2047 
L 1894 2003 
Q 2506 1872 2764 1633 
Q 3022 1394 3022 966 
Q 3022 478 2636 193 
Q 2250 -91 1575 -91 
Q 1294 -91 989 -36 
Q 684 19 347 128 
L 347 722 
Q 666 556 975 473 
Q 1284 391 1588 391 
Q 1994 391 2212 530 
Q 2431 669 2431 922 
Q 2431 1156 2273 1281 
Q 2116 1406 1581 1522 
L 1381 1569 
Q 847 1681 609 1914 
Q 372 2147 372 2553 
Q 372 3047 722 3315 
Q 1072 3584 1716 3584 
Q 2034 3584 2315 3537 
Q 2597 3491 2834 3397 
z
" id="DejaVuSans-73" transform="scale(0.015625)"/>
       </defs>
       <use xlink:href="#DejaVuSans-44"/>
       <use x="77.001953" xlink:href="#DejaVuSans-69"/>
       <use x="104.785156" xlink:href="#DejaVuSans-65"/>
       <use x="166.308594" xlink:href="#DejaVuSans-73"/>
       <use x="218.408203" xlink:href="#DejaVuSans-65"/>
       <use x="279.931641" xlink:href="#DejaVuSans-6c"/>
      </g>
     </g>
    </g>
    <g id="xtick_7">
     <g id="line2d_22">
      <g>
       <use style="stroke:#000000;stroke-width:0.8;" x="252.695" xlink:href="#md7b0404412" y="246.2"/>
      </g>
     </g>
     <g id="text_8">
      <!-- Petrol -->
      <g transform="translate(238.433281 260.798437)scale(0.1 -0.1)">
       <defs>
        <path d="M 1259 4147 
L 1259 2394 
L 2053 2394 
Q 2494 2394 2734 2622 
Q 2975 2850 2975 3272 
Q 2975 3691 2734 3919 
Q 2494 4147 2053 4147 
L 1259 4147 
z
M 628 4666 
L 2053 4666 
Q 2838 4666 3239 4311 
Q 3641 3956 3641 3272 
Q 3641 2581 3239 2228 
Q 2838 1875 2053 1875 
L 1259 1875 
L 1259 0 
L 628 0 
L 628 4666 
z
" id="DejaVuSans-50" transform="scale(0.015625)"/>
        <path d="M 1172 4494 
L 1172 3500 
L 2356 3500 
L 2356 3053 
L 1172 3053 
L 1172 1153 
Q 1172 725 1289 603 
Q 1406 481 1766 481 
L 2356 481 
L 2356 0 
L 1766 0 
Q 1100 0 847 248 
Q 594 497 594 1153 
L 594 3053 
L 172 3053 
L 172 3500 
L 594 3500 
L 594 4494 
L 1172 4494 
z
" id="DejaVuSans-74" transform="scale(0.015625)"/>
       </defs>
       <use xlink:href="#DejaVuSans-50"/>
       <use x="56.677734" xlink:href="#DejaVuSans-65"/>
       <use x="118.201172" xlink:href="#DejaVuSans-74"/>
       <use x="157.410156" xlink:href="#DejaVuSans-72"/>
       <use x="196.273438" xlink:href="#DejaVuSans-6f"/>
       <use x="257.455078" xlink:href="#DejaVuSans-6c"/>
      </g>
     </g>
    </g>
    <g id="xtick_8">
     <g id="line2d_23">
      <g>
       <use style="stroke:#000000;stroke-width:0.8;" x="383.125" xlink:href="#md7b0404412" y="246.2"/>
      </g>
     </g>
     <g id="text_9">
      <!-- Other -->
      <g transform="translate(368.928125 260.798437)scale(0.1 -0.1)">
       <defs>
        <path d="M 2522 4238 
Q 1834 4238 1429 3725 
Q 1025 3213 1025 2328 
Q 1025 1447 1429 934 
Q 1834 422 2522 422 
Q 3209 422 3611 934 
Q 4013 1447 4013 2328 
Q 4013 3213 3611 3725 
Q 3209 4238 2522 4238 
z
M 2522 4750 
Q 3503 4750 4090 4092 
Q 4678 3434 4678 2328 
Q 4678 1225 4090 567 
Q 3503 -91 2522 -91 
Q 1538 -91 948 565 
Q 359 1222 359 2328 
Q 359 3434 948 4092 
Q 1538 4750 2522 4750 
z
" id="DejaVuSans-4f" transform="scale(0.015625)"/>
        <path d="M 3513 2113 
L 3513 0 
L 2938 0 
L 2938 2094 
Q 2938 2591 2744 2837 
Q 2550 3084 2163 3084 
Q 1697 3084 1428 2787 
Q 1159 2491 1159 1978 
L 1159 0 
L 581 0 
L 581 4863 
L 1159 4863 
L 1159 2956 
Q 1366 3272 1645 3428 
Q 1925 3584 2291 3584 
Q 2894 3584 3203 3211 
Q 3513 2838 3513 2113 
z
" id="DejaVuSans-68" transform="scale(0.015625)"/>
       </defs>
       <use xlink:href="#DejaVuSans-4f"/>
       <use x="78.710938" xlink:href="#DejaVuSans-74"/>
       <use x="117.919922" xlink:href="#DejaVuSans-68"/>
       <use x="181.298828" xlink:href="#DejaVuSans-65"/>
       <use x="242.822266" xlink:href="#DejaVuSans-72"/>
      </g>
     </g>
    </g>
    <g id="xtick_9">
     <g id="line2d_24">
      <g>
       <use style="stroke:#000000;stroke-width:0.8;" x="513.555" xlink:href="#md7b0404412" y="246.2"/>
      </g>
     </g>
     <g id="text_10">
      <!-- Hybrid -->
      <g transform="translate(497.0425 260.798437)scale(0.1 -0.1)">
       <defs>
        <path d="M 628 4666 
L 1259 4666 
L 1259 2753 
L 3553 2753 
L 3553 4666 
L 4184 4666 
L 4184 0 
L 3553 0 
L 3553 2222 
L 1259 2222 
L 1259 0 
L 628 0 
L 628 4666 
z
" id="DejaVuSans-48" transform="scale(0.015625)"/>
        <path d="M 2059 -325 
Q 1816 -950 1584 -1140 
Q 1353 -1331 966 -1331 
L 506 -1331 
L 506 -850 
L 844 -850 
Q 1081 -850 1212 -737 
Q 1344 -625 1503 -206 
L 1606 56 
L 191 3500 
L 800 3500 
L 1894 763 
L 2988 3500 
L 3597 3500 
L 2059 -325 
z
" id="DejaVuSans-79" transform="scale(0.015625)"/>
        <path d="M 3116 1747 
Q 3116 2381 2855 2742 
Q 2594 3103 2138 3103 
Q 1681 3103 1420 2742 
Q 1159 2381 1159 1747 
Q 1159 1113 1420 752 
Q 1681 391 2138 391 
Q 2594 391 2855 752 
Q 3116 1113 3116 1747 
z
M 1159 2969 
Q 1341 3281 1617 3432 
Q 1894 3584 2278 3584 
Q 2916 3584 3314 3078 
Q 3713 2572 3713 1747 
Q 3713 922 3314 415 
Q 2916 -91 2278 -91 
Q 1894 -91 1617 61 
Q 1341 213 1159 525 
L 1159 0 
L 581 0 
L 581 4863 
L 1159 4863 
L 1159 2969 
z
" id="DejaVuSans-62" transform="scale(0.015625)"/>
        <path d="M 2906 2969 
L 2906 4863 
L 3481 4863 
L 3481 0 
L 2906 0 
L 2906 525 
Q 2725 213 2448 61 
Q 2172 -91 1784 -91 
Q 1150 -91 751 415 
Q 353 922 353 1747 
Q 353 2572 751 3078 
Q 1150 3584 1784 3584 
Q 2172 3584 2448 3432 
Q 2725 3281 2906 2969 
z
M 947 1747 
Q 947 1113 1208 752 
Q 1469 391 1925 391 
Q 2381 391 2643 752 
Q 2906 1113 2906 1747 
Q 2906 2381 2643 2742 
Q 2381 3103 1925 3103 
Q 1469 3103 1208 2742 
Q 947 2381 947 1747 
z
" id="DejaVuSans-64" transform="scale(0.015625)"/>
       </defs>
       <use xlink:href="#DejaVuSans-48"/>
       <use x="75.195312" xlink:href="#DejaVuSans-79"/>
       <use x="134.375" xlink:href="#DejaVuSans-62"/>
       <use x="197.851562" xlink:href="#DejaVuSans-72"/>
       <use x="238.964844" xlink:href="#DejaVuSans-69"/>
       <use x="266.748047" xlink:href="#DejaVuSans-64"/>
      </g>
     </g>
    </g>
    <g id="xtick_10">
     <g id="line2d_25">
      <g>
       <use style="stroke:#000000;stroke-width:0.8;" x="643.985" xlink:href="#md7b0404412" y="246.2"/>
      </g>
     </g>
     <g id="text_11">
      <!-- Electric -->
      <g transform="translate(625.456875 260.798437)scale(0.1 -0.1)">
       <defs>
        <path d="M 628 4666 
L 3578 4666 
L 3578 4134 
L 1259 4134 
L 1259 2753 
L 3481 2753 
L 3481 2222 
L 1259 2222 
L 1259 531 
L 3634 531 
L 3634 0 
L 628 0 
L 628 4666 
z
" id="DejaVuSans-45" transform="scale(0.015625)"/>
       </defs>
       <use xlink:href="#DejaVuSans-45"/>
       <use x="63.183594" xlink:href="#DejaVuSans-6c"/>
       <use x="90.966797" xlink:href="#DejaVuSans-65"/>
       <use x="152.490234" xlink:href="#DejaVuSans-63"/>
       <use x="207.470703" xlink:href="#DejaVuSans-74"/>
       <use x="246.679688" xlink:href="#DejaVuSans-72"/>
       <use x="287.792969" xlink:href="#DejaVuSans-69"/>
       <use x="315.576172" xlink:href="#DejaVuSans-63"/>
      </g>
     </g>
    </g>
    <g id="text_12">
     <!-- fuelType -->
     <g transform="translate(362.247656 274.476562)scale(0.1 -0.1)">
      <defs>
       <path d="M 2375 4863 
L 2375 4384 
L 1825 4384 
Q 1516 4384 1395 4259 
Q 1275 4134 1275 3809 
L 1275 3500 
L 2222 3500 
L 2222 3053 
L 1275 3053 
L 1275 0 
L 697 0 
L 697 3053 
L 147 3053 
L 147 3500 
L 697 3500 
L 697 3744 
Q 697 4328 969 4595 
Q 1241 4863 1831 4863 
L 2375 4863 
z
" id="DejaVuSans-66" transform="scale(0.015625)"/>
       <path d="M 544 1381 
L 544 3500 
L 1119 3500 
L 1119 1403 
Q 1119 906 1312 657 
Q 1506 409 1894 409 
Q 2359 409 2629 706 
Q 2900 1003 2900 1516 
L 2900 3500 
L 3475 3500 
L 3475 0 
L 2900 0 
L 2900 538 
Q 2691 219 2414 64 
Q 2138 -91 1772 -91 
Q 1169 -91 856 284 
Q 544 659 544 1381 
z
M 1991 3584 
L 1991 3584 
z
" id="DejaVuSans-75" transform="scale(0.015625)"/>
       <path d="M -19 4666 
L 3928 4666 
L 3928 4134 
L 2272 4134 
L 2272 0 
L 1638 0 
L 1638 4134 
L -19 4134 
L -19 4666 
z
" id="DejaVuSans-54" transform="scale(0.015625)"/>
      </defs>
      <use xlink:href="#DejaVuSans-66"/>
      <use x="35.205078" xlink:href="#DejaVuSans-75"/>
      <use x="98.583984" xlink:href="#DejaVuSans-65"/>
      <use x="160.107422" xlink:href="#DejaVuSans-6c"/>
      <use x="187.890625" xlink:href="#DejaVuSans-54"/>
      <use x="233.349609" xlink:href="#DejaVuSans-79"/>
      <use x="292.529297" xlink:href="#DejaVuSans-70"/>
      <use x="356.005859" xlink:href="#DejaVuSans-65"/>
     </g>
    </g>
   </g>
   <g id="matplotlib.axis_4">
    <g id="ytick_6">
     <g id="line2d_26">
      <g>
       <use style="stroke:#000000;stroke-width:0.8;" x="57.05" xlink:href="#ma09051a799" y="246.2"/>
      </g>
     </g>
     <g id="text_13">
      <!-- 0 -->
      <g transform="translate(43.6875 249.999219)scale(0.1 -0.1)">
       <use xlink:href="#DejaVuSans-30"/>
      </g>
     </g>
    </g>
    <g id="ytick_7">
     <g id="line2d_27">
      <g>
       <use style="stroke:#000000;stroke-width:0.8;" x="57.05" xlink:href="#ma09051a799" y="222.227161"/>
      </g>
     </g>
     <g id="text_14">
      <!-- 2000 -->
      <g transform="translate(24.6 226.026379)scale(0.1 -0.1)">
       <defs>
        <path d="M 1228 531 
L 3431 531 
L 3431 0 
L 469 0 
L 469 531 
Q 828 903 1448 1529 
Q 2069 2156 2228 2338 
Q 2531 2678 2651 2914 
Q 2772 3150 2772 3378 
Q 2772 3750 2511 3984 
Q 2250 4219 1831 4219 
Q 1534 4219 1204 4116 
Q 875 4013 500 3803 
L 500 4441 
Q 881 4594 1212 4672 
Q 1544 4750 1819 4750 
Q 2544 4750 2975 4387 
Q 3406 4025 3406 3419 
Q 3406 3131 3298 2873 
Q 3191 2616 2906 2266 
Q 2828 2175 2409 1742 
Q 1991 1309 1228 531 
z
" id="DejaVuSans-32" transform="scale(0.015625)"/>
       </defs>
       <use xlink:href="#DejaVuSans-32"/>
       <use x="63.623047" xlink:href="#DejaVuSans-30"/>
       <use x="127.246094" xlink:href="#DejaVuSans-30"/>
       <use x="190.869141" xlink:href="#DejaVuSans-30"/>
      </g>
     </g>
    </g>
    <g id="ytick_8">
     <g id="line2d_28">
      <g>
       <use style="stroke:#000000;stroke-width:0.8;" x="57.05" xlink:href="#ma09051a799" y="198.254321"/>
      </g>
     </g>
     <g id="text_15">
      <!-- 4000 -->
      <g transform="translate(24.6 202.05354)scale(0.1 -0.1)">
       <use xlink:href="#DejaVuSans-34"/>
       <use x="63.623047" xlink:href="#DejaVuSans-30"/>
       <use x="127.246094" xlink:href="#DejaVuSans-30"/>
       <use x="190.869141" xlink:href="#DejaVuSans-30"/>
      </g>
     </g>
    </g>
    <g id="ytick_9">
     <g id="line2d_29">
      <g>
       <use style="stroke:#000000;stroke-width:0.8;" x="57.05" xlink:href="#ma09051a799" y="174.281482"/>
      </g>
     </g>
     <g id="text_16">
      <!-- 6000 -->
      <g transform="translate(24.6 178.0807)scale(0.1 -0.1)">
       <defs>
        <path d="M 2113 2584 
Q 1688 2584 1439 2293 
Q 1191 2003 1191 1497 
Q 1191 994 1439 701 
Q 1688 409 2113 409 
Q 2538 409 2786 701 
Q 3034 994 3034 1497 
Q 3034 2003 2786 2293 
Q 2538 2584 2113 2584 
z
M 3366 4563 
L 3366 3988 
Q 3128 4100 2886 4159 
Q 2644 4219 2406 4219 
Q 1781 4219 1451 3797 
Q 1122 3375 1075 2522 
Q 1259 2794 1537 2939 
Q 1816 3084 2150 3084 
Q 2853 3084 3261 2657 
Q 3669 2231 3669 1497 
Q 3669 778 3244 343 
Q 2819 -91 2113 -91 
Q 1303 -91 875 529 
Q 447 1150 447 2328 
Q 447 3434 972 4092 
Q 1497 4750 2381 4750 
Q 2619 4750 2861 4703 
Q 3103 4656 3366 4563 
z
" id="DejaVuSans-36" transform="scale(0.015625)"/>
       </defs>
       <use xlink:href="#DejaVuSans-36"/>
       <use x="63.623047" xlink:href="#DejaVuSans-30"/>
       <use x="127.246094" xlink:href="#DejaVuSans-30"/>
       <use x="190.869141" xlink:href="#DejaVuSans-30"/>
      </g>
     </g>
    </g>
    <g id="text_17">
     <!-- count -->
     <g transform="translate(18.520312 216.08625)rotate(-90)scale(0.1 -0.1)">
      <defs>
       <path d="M 3513 2113 
L 3513 0 
L 2938 0 
L 2938 2094 
Q 2938 2591 2744 2837 
Q 2550 3084 2163 3084 
Q 1697 3084 1428 2787 
Q 1159 2491 1159 1978 
L 1159 0 
L 581 0 
L 581 3500 
L 1159 3500 
L 1159 2956 
Q 1366 3272 1645 3428 
Q 1925 3584 2291 3584 
Q 2894 3584 3203 3211 
Q 3513 2838 3513 2113 
z
" id="DejaVuSans-6e" transform="scale(0.015625)"/>
      </defs>
      <use xlink:href="#DejaVuSans-63"/>
      <use x="54.980469" xlink:href="#DejaVuSans-6f"/>
      <use x="116.162109" xlink:href="#DejaVuSans-75"/>
      <use x="179.541016" xlink:href="#DejaVuSans-6e"/>
      <use x="242.919922" xlink:href="#DejaVuSans-74"/>
     </g>
    </g>
   </g>
   <g id="patch_13">
    <path d="M 57.05 246.2 
L 57.05 157.76 
" style="fill:none;stroke:#000000;stroke-linecap:square;stroke-linejoin:miter;stroke-width:0.8;"/>
   </g>
   <g id="patch_14">
    <path d="M 709.2 246.2 
L 709.2 157.76 
" style="fill:none;stroke:#000000;stroke-linecap:square;stroke-linejoin:miter;stroke-width:0.8;"/>
   </g>
   <g id="patch_15">
    <path d="M 57.05 246.2 
L 709.2 246.2 
" style="fill:none;stroke:#000000;stroke-linecap:square;stroke-linejoin:miter;stroke-width:0.8;"/>
   </g>
   <g id="patch_16">
    <path d="M 57.05 157.76 
L 709.2 157.76 
" style="fill:none;stroke:#000000;stroke-linecap:square;stroke-linejoin:miter;stroke-width:0.8;"/>
   </g>
  </g>
 </g>
 <defs>
  <clipPath id="p8a9ad51398">
   <rect height="132.66" width="652.15" x="57.05" y="10.8"/>
  </clipPath>
  <clipPath id="p1536ed3a87">
   <rect height="88.44" width="652.15" x="57.05" y="157.76"/>
  </clipPath>
 </defs>
</svg>
