<?xml version="1.0" encoding="UTF-8" standalone="no"?>
<!DOCTYPE svg PUBLIC "-//W3C//DTD SVG 1.1//EN"
 "http://www.w3.org/Graphics/SVG/1.1/DTD/svg11.dtd">
<!-- Generated by graphviz version 2.43.0 (0)
 -->
<!-- Title: %3 Pages: 1 -->
<svg width="418pt" height="398pt"
 viewBox="0.00 0.00 418.00 398.00" xmlns="http://www.w3.org/2000/svg" xmlns:xlink="http://www.w3.org/1999/xlink">
<g id="graph0" class="graph" transform="scale(1 1) rotate(0) translate(4 394)">
<title>%3</title>
<polygon fill="white" stroke="transparent" points="-4,4 -4,-394 414,-394 414,4 -4,4"/>
<g id="clust1" class="cluster">
<title>clusterA</title>
<polygon fill="lightgrey" stroke="lightgrey" points="0.32,-181.84 0.32,-389.84 245.32,-389.84 245.32,-181.84 0.32,-181.84"/>
<text text-anchor="middle" x="122.82" y="-374.64" font-family="Times,serif" font-size="14.00">New car configuration</text>
</g>
<g id="clust2" class="cluster">
<title>clusterB</title>
<polygon fill="lightgrey" stroke="lightgrey" points="298.53,-208.74 298.53,-283.74 409.53,-283.74 409.53,-208.74 298.53,-208.74"/>
<text text-anchor="middle" x="354.03" y="-268.54" font-family="Times,serif" font-size="14.00">Usage</text>
</g>
<g id="clust3" class="cluster">
<title>clusterC</title>
<polygon fill="lightgrey" stroke="lightgrey" points="213.95,-0.28 213.95,-123.28 347.95,-123.28 347.95,-0.28 213.95,-0.28"/>
<text text-anchor="middle" x="280.95" y="-108.08" font-family="Times,serif" font-size="14.00">Others</text>
</g>
<!-- model -->
<g id="node1" class="node">
<title>model</title>
<ellipse fill="white" stroke="white" cx="61.55" cy="-340.48" rx="38.99" ry="18"/>
<text text-anchor="middle" x="61.55" y="-336.78" font-family="Times,serif" font-size="14.00">model</text>
</g>
<!-- transmission -->
<g id="node2" class="node">
<title>transmission</title>
<ellipse fill="white" stroke="white" cx="79.55" cy="-256.48" rx="70.69" ry="18"/>
<text text-anchor="middle" x="79.55" y="-252.78" font-family="Times,serif" font-size="14.00">transmission</text>
</g>
<!-- fuelType -->
<g id="node3" class="node">
<title>fuelType</title>
<ellipse fill="white" stroke="white" cx="135.55" cy="-207.48" rx="50.89" ry="18"/>
<text text-anchor="middle" x="135.55" y="-203.78" font-family="Times,serif" font-size="14.00">fuelType</text>
</g>
<!-- engineSize -->
<g id="node4" class="node">
<title>engineSize</title>
<ellipse fill="white" stroke="white" cx="175.55" cy="-305.48" rx="61.99" ry="18"/>
<text text-anchor="middle" x="175.55" y="-301.78" font-family="Times,serif" font-size="14.00">engineSize</text>
</g>
<!-- year -->
<g id="node5" class="node">
<title>year</title>
<ellipse fill="white" stroke="white" cx="193.55" cy="-256.48" rx="31.4" ry="18"/>
<text text-anchor="middle" x="193.55" y="-252.78" font-family="Times,serif" font-size="14.00">year</text>
</g>
<!-- mileage -->
<g id="node6" class="node">
<title>mileage</title>
<ellipse fill="white" stroke="white" cx="353.77" cy="-234.38" rx="47.39" ry="18"/>
<text text-anchor="middle" x="353.77" y="-230.68" font-family="Times,serif" font-size="14.00">mileage</text>
</g>
<!-- tax -->
<g id="node7" class="node">
<title>tax</title>
<ellipse fill="white" stroke="white" cx="313.19" cy="-73.92" rx="27" ry="18"/>
<text text-anchor="middle" x="313.19" y="-70.22" font-family="Times,serif" font-size="14.00">tax</text>
</g>
<!-- mpg -->
<g id="node8" class="node">
<title>mpg</title>
<ellipse fill="white" stroke="white" cx="253.19" cy="-25.92" rx="31.4" ry="18"/>
<text text-anchor="middle" x="253.19" y="-22.22" font-family="Times,serif" font-size="14.00">mpg</text>
</g>
<!-- price -->
<g id="node10" class="node">
<title>price</title>
<ellipse fill="none" stroke="black" cx="247.69" cy="-155.29" rx="34.39" ry="18"/>
<text text-anchor="middle" x="247.69" y="-151.59" font-family="Times,serif" font-size="14.00">price</text>
</g>
<!-- __0:clusterA -->
<!-- __0:clusterA&#45;&#45;price -->
<g id="edge4" class="edge">
<title>__0:clusterA&#45;&#45;price</title>
<path fill="none" stroke="black" d="M222.42,-181.71C223.29,-180.8 224.15,-179.91 224.98,-179.03"/>
<polygon fill="black" stroke="black" points="227.67,-181.29 232.05,-171.64 222.61,-176.45 227.67,-181.29"/>
</g>
<!-- __1:clusterB -->
<!-- __1:clusterB&#45;&#45;price -->
<g id="edge5" class="edge">
<title>__1:clusterB&#45;&#45;price</title>
<path fill="none" stroke="black" d="M310.16,-208.72C297.64,-198.01 284.41,-186.69 273.36,-177.25"/>
<polygon fill="black" stroke="black" points="275.62,-174.57 265.75,-170.73 271.07,-179.89 275.62,-174.57"/>
</g>
<!-- __2:clusterC -->
<!-- __2:clusterC&#45;&#45;price -->
<g id="edge6" class="edge">
<title>__2:clusterC&#45;&#45;price</title>
<path fill="none" stroke="grey" d="M259.05,-123.37C258.48,-124.95 257.93,-126.51 257.39,-128.03"/>
<polygon fill="grey" stroke="grey" points="254.07,-126.91 254.02,-137.5 260.67,-129.26 254.07,-126.91"/>
</g>
</g>
</svg>
